STARTFONT 2.1
COMMENT
COMMENT Converted from TrueType font "D:\WINNT\Fonts\comic.TTF" by "ttf2bdf 2.5".
COMMENT
FONT -FreeType-Comic Sans MS-Medium-R-Normal--20-120-120-120-P-105-ISO10646-1
SIZE 12 120 120
FONTBOUNDINGBOX 26 28 -2 -6
STARTPROPERTIES 20
FOUNDRY "FreeType"
FAMILY_NAME "Comic Sans MS"
WEIGHT_NAME "Medium"
SLANT "R"
SETWIDTH_NAME "Normal"
ADD_STYLE_NAME ""
PIXEL_SIZE 20
POINT_SIZE 120
RESOLUTION_X 120
RESOLUTION_Y 120
SPACING "P"
AVERAGE_WIDTH 105
CHARSET_REGISTRY "ISO10646"
CHARSET_ENCODING "1"
FONT_ASCENT 22
FONT_DESCENT 5
COPYRIGHT "Copyright (c) 1995 Microsoft Corporation. All rights reserved."
_TTF_FONTFILE "D:\WINNT\Fonts\comic.TTF"
_TTF_PSNAME "ComicSansMS"
_XFREE86_GLYPH_RANGES "32_126 160_383 402 506_511 710_711 713 728_733 894 900_906 908 910_929 931_974 1025_1036 1038_1103 1105_1116 1118_1119 1168_1169 7808_7813 7922_7923 8211_8213 8215_8222 8224_8226 8230 8240 8242_8243 8249_8250 8252 8254 8260 8319 8355_8356 8359 8364 8453 8467 8470 8482 8486 8494 8539_8542 8706 8710 8719 8721_8722 8725 8729_8730 8734 8747 8776 8800 8804_8805 9633 9642_9643 9674 9679 9702 61441_61445 64257_64258"
ENDPROPERTIES
CHARS 575
STARTCHAR 0020
ENCODING 32
SWIDTH 250 0
DWIDTH 5 0
BBX 1 1 0 0
BITMAP
00
ENDCHAR
STARTCHAR 0021
ENCODING 33
SWIDTH 250 0
DWIDTH 5 0
BBX 2 17 1 -1
BITMAP
C0
C0
C0
C0
C0
C0
C0
C0
C0
C0
C0
C0
C0
C0
00
C0
C0
ENDCHAR
STARTCHAR 0022
ENCODING 34
SWIDTH 400 0
DWIDTH 8 0
BBX 6 6 1 9
BITMAP
CC
CC
CC
CC
CC
CC
ENDCHAR
STARTCHAR 0023
ENCODING 35
SWIDTH 850 0
DWIDTH 17 0
BBX 17 15 0 0
BITMAP
030600
030600
060C00
7FFF80
7FFF80
061800
0C1800
0C1800
0C1800
FFFF00
FFFF00
183000
386000
306000
306000
ENDCHAR
STARTCHAR 0024
ENCODING 36
SWIDTH 700 0
DWIDTH 14 0
BBX 11 20 2 -3
BITMAP
0C00
0C00
1F80
3FC0
6C00
CC00
CC00
EC00
7F00
3FC0
0CE0
0C60
0C60
8C60
CDC0
FF80
7F00
0C00
0C00
0C00
ENDCHAR
STARTCHAR 0025
ENCODING 37
SWIDTH 800 0
DWIDTH 16 0
BBX 13 16 1 0
BITMAP
0040
78C0
FC80
CD80
CD80
FF00
7B00
0200
0600
0400
0CF0
0DF8
1998
1998
31F8
30F0
ENDCHAR
STARTCHAR 0026
ENCODING 38
SWIDTH 650 0
DWIDTH 13 0
BBX 12 16 1 -1
BITMAP
0700
0780
0D80
0D80
0F00
0F00
1E60
3F60
6360
C1E0
C1E0
C0C0
E1E0
7F60
3E30
0030
ENDCHAR
STARTCHAR 0027
ENCODING 39
SWIDTH 400 0
DWIDTH 8 0
BBX 2 6 3 9
BITMAP
C0
C0
C0
C0
C0
C0
ENDCHAR
STARTCHAR 0028
ENCODING 40
SWIDTH 350 0
DWIDTH 7 0
BBX 6 20 1 -4
BITMAP
0C
1C
38
30
60
60
E0
C0
C0
C0
C0
C0
C0
C0
60
60
70
30
1C
0C
ENDCHAR
STARTCHAR 0029
ENCODING 41
SWIDTH 350 0
DWIDTH 7 0
BBX 6 20 0 -4
BITMAP
C0
E0
70
30
18
18
1C
0C
0C
0C
0C
0C
0C
0C
18
18
38
30
E0
C0
ENDCHAR
STARTCHAR 002A
ENCODING 42
SWIDTH 500 0
DWIDTH 10 0
BBX 9 8 0 8
BITMAP
0800
0800
FF80
FF80
1C00
3E00
7300
6100
ENDCHAR
STARTCHAR 002B
ENCODING 43
SWIDTH 500 0
DWIDTH 10 0
BBX 8 8 1 2
BITMAP
18
18
18
FF
FF
18
18
18
ENDCHAR
STARTCHAR 002C
ENCODING 44
SWIDTH 300 0
DWIDTH 6 0
BBX 3 5 2 -4
BITMAP
60
60
40
C0
C0
ENDCHAR
STARTCHAR 002D
ENCODING 45
SWIDTH 400 0
DWIDTH 8 0
BBX 6 2 1 5
BITMAP
FC
FC
ENDCHAR
STARTCHAR 002E
ENCODING 46
SWIDTH 200 0
DWIDTH 4 0
BBX 2 2 1 0
BITMAP
C0
C0
ENDCHAR
STARTCHAR 002F
ENCODING 47
SWIDTH 550 0
DWIDTH 11 0
BBX 9 17 1 -1
BITMAP
0080
0180
0180
0300
0300
0600
0600
0C00
0C00
1800
1800
3000
3000
6000
6000
C000
C000
ENDCHAR
STARTCHAR 0030
ENCODING 48
SWIDTH 600 0
DWIDTH 12 0
BBX 11 15 0 0
BITMAP
1F00
3F80
71C0
60C0
C060
C060
C060
C060
C060
C060
C0E0
60C0
71C0
3F80
1F00
ENDCHAR
STARTCHAR 0031
ENCODING 49
SWIDTH 450 0
DWIDTH 9 0
BBX 6 15 2 0
BITMAP
30
70
F0
B0
30
30
30
30
30
30
30
30
30
FC
FC
ENDCHAR
STARTCHAR 0032
ENCODING 50
SWIDTH 600 0
DWIDTH 12 0
BBX 8 15 2 0
BITMAP
3C
7E
E7
C3
03
07
06
1C
38
70
E0
C0
C0
FF
FF
ENDCHAR
STARTCHAR 0033
ENCODING 51
SWIDTH 600 0
DWIDTH 12 0
BBX 9 15 1 0
BITMAP
1E00
7F00
6380
0180
0180
0780
3F00
1E00
0300
0180
0180
C180
E380
7F00
3E00
ENDCHAR
STARTCHAR 0034
ENCODING 52
SWIDTH 600 0
DWIDTH 12 0
BBX 11 15 0 0
BITMAP
0180
0380
0780
0D80
0D80
1980
3980
3180
6180
FFE0
FFE0
0180
0180
0180
0180
ENDCHAR
STARTCHAR 0035
ENCODING 53
SWIDTH 600 0
DWIDTH 12 0
BBX 10 15 1 0
BITMAP
FF80
FF80
C000
C000
DF00
FF80
F1C0
E0C0
C0C0
00C0
00C0
C1C0
E380
7F00
3E00
ENDCHAR
STARTCHAR 0036
ENCODING 54
SWIDTH 600 0
DWIDTH 12 0
BBX 10 15 1 0
BITMAP
0600
0E00
1C00
3800
7000
6000
FF00
FF80
E1C0
C0C0
C0C0
C0C0
6180
7F80
3E00
ENDCHAR
STARTCHAR 0037
ENCODING 55
SWIDTH 600 0
DWIDTH 12 0
BBX 11 15 1 0
BITMAP
FFE0
FFE0
00C0
0180
0300
0300
0600
0600
0C00
0C00
0C00
1800
1800
3000
3000
ENDCHAR
STARTCHAR 0038
ENCODING 56
SWIDTH 600 0
DWIDTH 12 0
BBX 10 15 1 0
BITMAP
1F00
7F80
E1C0
C0C0
C0C0
E1C0
7F80
3F80
73C0
C0C0
C0C0
C0C0
E1C0
7F80
3F00
ENDCHAR
STARTCHAR 0039
ENCODING 57
SWIDTH 600 0
DWIDTH 12 0
BBX 10 16 1 -1
BITMAP
1E00
7F80
6380
C1C0
C0C0
C0C0
C0C0
E1C0
7FC0
3F80
0180
0300
0700
1E00
7C00
7000
ENDCHAR
STARTCHAR 003A
ENCODING 58
SWIDTH 300 0
DWIDTH 6 0
BBX 2 9 2 1
BITMAP
C0
C0
C0
00
00
00
C0
C0
C0
ENDCHAR
STARTCHAR 003B
ENCODING 59
SWIDTH 300 0
DWIDTH 6 0
BBX 3 12 1 -2
BITMAP
60
60
60
00
00
00
00
00
60
60
C0
C0
ENDCHAR
STARTCHAR 003C
ENCODING 60
SWIDTH 400 0
DWIDTH 8 0
BBX 6 8 0 2
BITMAP
0C
1C
38
70
E0
30
1C
0C
ENDCHAR
STARTCHAR 003D
ENCODING 61
SWIDTH 500 0
DWIDTH 10 0
BBX 8 8 1 3
BITMAP
FF
FF
00
00
00
00
FF
FF
ENDCHAR
STARTCHAR 003E
ENCODING 62
SWIDTH 400 0
DWIDTH 8 0
BBX 7 9 1 2
BITMAP
C0
E0
70
3C
0E
1C
38
E0
C0
ENDCHAR
STARTCHAR 003F
ENCODING 63
SWIDTH 550 0
DWIDTH 11 0
BBX 9 15 1 -1
BITMAP
3C00
FE00
C700
0380
0180
0180
0380
0700
1C00
3800
2000
0000
0000
6000
6000
ENDCHAR
STARTCHAR 0040
ENCODING 64
SWIDTH 900 0
DWIDTH 18 0
BBX 16 17 1 -1
BITMAP
07E0
1FF8
381C
700E
6386
E783
C603
CC43
CCC3
CCC7
CFFE
E73C
6000
3000
3C38
0FF8
07E0
ENDCHAR
STARTCHAR 0041
ENCODING 65
SWIDTH 700 0
DWIDTH 14 0
BBX 12 15 1 0
BITMAP
0180
0180
0380
0380
06C0
06C0
0CC0
0CC0
1FC0
3FE0
3860
6060
6070
C030
C030
ENDCHAR
STARTCHAR 0042
ENCODING 66
SWIDTH 650 0
DWIDTH 13 0
BBX 10 15 2 0
BITMAP
FC00
FF00
C700
C180
C180
C180
C300
FF00
FF00
C380
C0C0
C1C0
C380
FF00
FC00
ENDCHAR
STARTCHAR 0043
ENCODING 67
SWIDTH 600 0
DWIDTH 12 0
BBX 11 15 0 0
BITMAP
03E0
0FE0
1C60
3860
3000
6000
6000
C000
C000
C000
C000
C0C0
61C0
7F80
1E00
ENDCHAR
STARTCHAR 0044
ENCODING 68
SWIDTH 700 0
DWIDTH 14 0
BBX 12 15 1 0
BITMAP
E000
F800
DE00
C380
C1C0
C060
C060
C030
C030
C030
C030
C060
C0E0
FFC0
3F00
ENDCHAR
STARTCHAR 0045
ENCODING 69
SWIDTH 600 0
DWIDTH 12 0
BBX 10 15 1 0
BITMAP
FFC0
FFC0
C000
C000
C000
C000
C780
FF80
F800
C000
C000
C000
C000
FF80
7F80
ENDCHAR
STARTCHAR 0046
ENCODING 70
SWIDTH 600 0
DWIDTH 12 0
BBX 10 15 2 0
BITMAP
FF00
FFC0
C0C0
C000
C000
C000
DF80
FF80
E000
C000
C000
C000
C000
C000
C000
ENDCHAR
STARTCHAR 0047
ENCODING 71
SWIDTH 700 0
DWIDTH 14 0
BBX 12 15 1 0
BITMAP
0700
1FC0
18C0
3000
7000
6000
6000
C3F0
CFF0
CC60
C0E0
C0C0
E180
7F00
3E00
ENDCHAR
STARTCHAR 0048
ENCODING 72
SWIDTH 750 0
DWIDTH 15 0
BBX 13 15 1 0
BITMAP
C018
C018
C018
C018
C018
C018
C018
C3F8
FFF8
FC18
C018
C018
C018
C018
C018
ENDCHAR
STARTCHAR 0049
ENCODING 73
SWIDTH 550 0
DWIDTH 11 0
BBX 8 15 1 0
BITMAP
FF
FF
18
18
18
18
18
18
18
18
18
18
18
FF
FF
ENDCHAR
STARTCHAR 004A
ENCODING 74
SWIDTH 650 0
DWIDTH 13 0
BBX 11 15 1 0
BITMAP
3FE0
3FE0
0300
0300
0300
0300
0300
0300
0300
C300
C300
C300
6700
3F00
1E00
ENDCHAR
STARTCHAR 004B
ENCODING 75
SWIDTH 600 0
DWIDTH 12 0
BBX 10 15 1 0
BITMAP
C180
C380
C700
C600
CE00
DC00
F800
F000
F000
F800
DC00
CE00
C700
C3C0
C0C0
ENDCHAR
STARTCHAR 004C
ENCODING 76
SWIDTH 550 0
DWIDTH 11 0
BBX 9 15 1 0
BITMAP
C000
C000
C000
C000
C000
C000
C000
C000
C000
C000
C000
C000
C000
FF80
FF80
ENDCHAR
STARTCHAR 004D
ENCODING 77
SWIDTH 900 0
DWIDTH 18 0
BBX 16 16 1 -1
BITMAP
0C10
1C18
1C38
1C38
1C38
1428
366C
366C
364C
26C4
66C6
67C6
E386
E383
C383
C303
ENDCHAR
STARTCHAR 004E
ENCODING 78
SWIDTH 800 0
DWIDTH 16 0
BBX 14 15 2 0
BITMAP
C008
E00C
F00C
F00C
D80C
DC0C
CE0C
C70C
C38C
C18C
C0CC
C06C
C03C
C01C
C00C
ENDCHAR
STARTCHAR 004F
ENCODING 79
SWIDTH 800 0
DWIDTH 16 0
BBX 14 15 1 0
BITMAP
07E0
1FF0
3C38
301C
600C
600C
C00C
C00C
C00C
C018
C018
6030
7070
3FE0
0F80
ENDCHAR
STARTCHAR 0050
ENCODING 80
SWIDTH 500 0
DWIDTH 10 0
BBX 8 15 1 0
BITMAP
F8
FE
C7
C3
C3
C3
C6
FE
F8
C0
C0
C0
C0
C0
C0
ENDCHAR
STARTCHAR 0051
ENCODING 81
SWIDTH 900 0
DWIDTH 18 0
BBX 17 19 1 -4
BITMAP
03F000
0FF800
3C1C00
700E00
600600
E00300
C00300
C00300
C00300
C00300
618300
71C600
387E00
1FFC00
07DC00
000E00
000700
000380
000100
ENDCHAR
STARTCHAR 0052
ENCODING 82
SWIDTH 650 0
DWIDTH 13 0
BBX 11 15 1 0
BITMAP
F800
FE00
C700
C180
C0C0
C0C0
C0C0
C3C0
FF80
FE00
DE00
C780
C1C0
C0E0
C060
ENDCHAR
STARTCHAR 0053
ENCODING 83
SWIDTH 700 0
DWIDTH 14 0
BBX 11 16 2 -1
BITMAP
0F80
1FC0
3000
6000
6000
7000
7F00
1FC0
01E0
0060
0060
0060
C0E0
E1C0
7F80
3F00
ENDCHAR
STARTCHAR 0054
ENCODING 84
SWIDTH 700 0
DWIDTH 14 0
BBX 13 15 1 0
BITMAP
FFF8
FFF8
0600
0600
0600
0600
0600
0600
0600
0600
0600
0600
0600
0600
0600
ENDCHAR
STARTCHAR 0055
ENCODING 85
SWIDTH 750 0
DWIDTH 15 0
BBX 12 15 2 0
BITMAP
C030
C030
C030
C030
C030
C030
C030
C030
C030
C060
C060
6060
70C0
3FC0
1F00
ENDCHAR
STARTCHAR 0056
ENCODING 86
SWIDTH 650 0
DWIDTH 13 0
BBX 12 15 1 0
BITMAP
C030
C030
C060
4060
60C0
60C0
20C0
3180
3180
3180
1B00
1B00
1F00
0E00
0E00
ENDCHAR
STARTCHAR 0057
ENCODING 87
SWIDTH 1000 0
DWIDTH 20 0
BBX 19 15 1 0
BITMAP
C06060
C06060
C0E0C0
60E0C0
61A0C0
61B180
21B180
333180
333300
363300
363600
1C3600
1C3600
183C00
181C00
ENDCHAR
STARTCHAR 0058
ENCODING 88
SWIDTH 700 0
DWIDTH 14 0
BBX 13 15 1 0
BITMAP
6018
7038
3030
1860
1CC0
0FC0
0780
0700
0780
0DC0
1CC0
3860
7070
E038
C018
ENDCHAR
STARTCHAR 0059
ENCODING 89
SWIDTH 650 0
DWIDTH 13 0
BBX 12 16 0 -1
BITMAP
C030
E030
6060
3060
30C0
18C0
1980
0D80
0780
0700
0300
0600
0600
0C00
0C00
0800
ENDCHAR
STARTCHAR 005A
ENCODING 90
SWIDTH 700 0
DWIDTH 14 0
BBX 13 15 1 0
BITMAP
FFF8
FFF8
0070
00C0
0180
0300
0600
0E00
0C00
1800
3000
6000
C000
FFF8
FFF8
ENDCHAR
STARTCHAR 005B
ENCODING 91
SWIDTH 400 0
DWIDTH 8 0
BBX 5 20 2 -4
BITMAP
F8
F8
C0
C0
C0
C0
C0
C0
C0
C0
C0
C0
C0
C0
C0
C0
C0
C0
F8
F8
ENDCHAR
STARTCHAR 005C
ENCODING 92
SWIDTH 550 0
DWIDTH 11 0
BBX 8 16 2 -1
BITMAP
C0
C0
60
60
30
30
18
18
18
0C
0C
06
06
06
03
03
ENDCHAR
STARTCHAR 005D
ENCODING 93
SWIDTH 400 0
DWIDTH 8 0
BBX 5 20 2 -4
BITMAP
F8
F8
18
18
18
18
18
18
18
18
18
18
18
18
18
18
18
18
F8
F8
ENDCHAR
STARTCHAR 005E
ENCODING 94
SWIDTH 550 0
DWIDTH 11 0
BBX 8 5 2 11
BITMAP
18
3C
76
E3
C1
ENDCHAR
STARTCHAR 005F
ENCODING 95
SWIDTH 650 0
DWIDTH 13 0
BBX 13 2 0 -3
BITMAP
FFF8
FFF8
ENDCHAR
STARTCHAR 0060
ENCODING 96
SWIDTH 550 0
DWIDTH 11 0
BBX 4 5 1 11
BITMAP
C0
E0
60
30
30
ENDCHAR
STARTCHAR 0061
ENCODING 97
SWIDTH 500 0
DWIDTH 10 0
BBX 9 10 1 0
BITMAP
1E00
3F00
7300
E300
C300
C300
C300
E300
7F80
3D80
ENDCHAR
STARTCHAR 0062
ENCODING 98
SWIDTH 600 0
DWIDTH 12 0
BBX 10 16 1 0
BITMAP
C000
C000
C000
C000
C000
C000
DE00
FF80
E180
C0C0
C0C0
C0C0
C0C0
C180
FF80
FE00
ENDCHAR
STARTCHAR 0063
ENCODING 99
SWIDTH 500 0
DWIDTH 10 0
BBX 8 10 1 0
BITMAP
1E
3F
73
60
C0
C0
C0
E3
7F
3C
ENDCHAR
STARTCHAR 0064
ENCODING 100
SWIDTH 600 0
DWIDTH 12 0
BBX 9 16 1 0
BITMAP
0180
0180
0180
0180
0180
0180
3D80
7F80
6380
C180
C180
C180
C180
E380
7F80
3D80
ENDCHAR
STARTCHAR 0065
ENCODING 101
SWIDTH 550 0
DWIDTH 11 0
BBX 9 10 1 0
BITMAP
1F00
3F80
6180
C700
FE00
F800
E080
E180
7F00
3E00
ENDCHAR
STARTCHAR 0066
ENCODING 102
SWIDTH 500 0
DWIDTH 10 0
BBX 9 16 1 0
BITMAP
0780
0F80
0C00
1800
1800
1800
FF80
FF80
1800
1800
1800
1800
1800
1800
1800
1800
ENDCHAR
STARTCHAR 0067
ENCODING 103
SWIDTH 550 0
DWIDTH 11 0
BBX 9 16 1 -6
BITMAP
1F00
3F80
7180
E180
C180
C180
C380
E780
7D80
3980
0180
0180
0300
0700
FE00
7C00
ENDCHAR
STARTCHAR 0068
ENCODING 104
SWIDTH 600 0
DWIDTH 12 0
BBX 8 16 2 0
BITMAP
C0
C0
C0
C0
C0
C0
CE
FF
F3
E3
C3
C3
C3
C3
C3
C3
ENDCHAR
STARTCHAR 0069
ENCODING 105
SWIDTH 300 0
DWIDTH 6 0
BBX 2 14 2 0
BITMAP
C0
C0
00
00
C0
C0
C0
C0
C0
C0
C0
C0
C0
C0
ENDCHAR
STARTCHAR 006A
ENCODING 106
SWIDTH 400 0
DWIDTH 8 0
BBX 7 20 0 -6
BITMAP
06
06
00
00
06
06
06
06
06
06
06
06
06
06
06
C6
C6
66
7C
38
ENDCHAR
STARTCHAR 006B
ENCODING 107
SWIDTH 550 0
DWIDTH 11 0
BBX 9 15 1 0
BITMAP
C000
C000
C000
C000
C000
C100
C300
C600
CC00
F800
FC00
C600
C300
C180
C180
ENDCHAR
STARTCHAR 006C
ENCODING 108
SWIDTH 250 0
DWIDTH 5 0
BBX 2 16 2 0
BITMAP
C0
C0
C0
C0
C0
C0
C0
C0
C0
C0
C0
C0
C0
C0
C0
C0
ENDCHAR
STARTCHAR 006D
ENCODING 109
SWIDTH 750 0
DWIDTH 15 0
BBX 13 10 1 0
BITMAP
CE70
DFF8
FB98
E318
C318
C318
C318
C318
C318
C318
ENDCHAR
STARTCHAR 006E
ENCODING 110
SWIDTH 500 0
DWIDTH 10 0
BBX 8 10 1 0
BITMAP
CE
FF
F3
E3
C3
C3
C3
C3
C3
C3
ENDCHAR
STARTCHAR 006F
ENCODING 111
SWIDTH 550 0
DWIDTH 11 0
BBX 9 10 1 0
BITMAP
1E00
7F00
6380
C180
C180
C180
C180
E300
7F00
3C00
ENDCHAR
STARTCHAR 0070
ENCODING 112
SWIDTH 550 0
DWIDTH 11 0
BBX 8 17 2 -6
BITMAP
C0
DC
FE
E7
C3
C3
C3
C3
C7
FE
FC
C0
C0
C0
C0
C0
C0
ENDCHAR
STARTCHAR 0071
ENCODING 113
SWIDTH 500 0
DWIDTH 10 0
BBX 8 15 1 -5
BITMAP
1F
3F
73
E3
C3
C3
C3
E7
7E
3E
06
06
06
06
06
ENDCHAR
STARTCHAR 0072
ENCODING 114
SWIDTH 500 0
DWIDTH 10 0
BBX 8 10 1 0
BITMAP
CF
DF
F3
E3
C0
C0
C0
C0
C0
C0
ENDCHAR
STARTCHAR 0073
ENCODING 115
SWIDTH 500 0
DWIDTH 10 0
BBX 8 10 1 0
BITMAP
07
7F
F3
C0
F8
1E
03
C3
FF
7C
ENDCHAR
STARTCHAR 0074
ENCODING 116
SWIDTH 400 0
DWIDTH 8 0
BBX 8 14 0 0
BITMAP
18
18
18
18
FF
FF
18
18
18
18
18
18
18
18
ENDCHAR
STARTCHAR 0075
ENCODING 117
SWIDTH 500 0
DWIDTH 10 0
BBX 8 10 1 0
BITMAP
C3
C3
C3
C3
C3
C3
C3
C3
FF
7F
ENDCHAR
STARTCHAR 0076
ENCODING 118
SWIDTH 500 0
DWIDTH 10 0
BBX 8 10 1 0
BITMAP
C3
C3
C3
66
66
64
2C
3C
38
18
ENDCHAR
STARTCHAR 0077
ENCODING 119
SWIDTH 700 0
DWIDTH 14 0
BBX 12 10 1 0
BITMAP
C630
CE30
CE60
CE60
DE60
DEC0
DAC0
72C0
7380
7380
ENDCHAR
STARTCHAR 0078
ENCODING 120
SWIDTH 600 0
DWIDTH 12 0
BBX 11 10 1 0
BITMAP
6060
70E0
39C0
1B80
0F00
1F00
3B80
71C0
E0E0
C060
ENDCHAR
STARTCHAR 0079
ENCODING 121
SWIDTH 500 0
DWIDTH 10 0
BBX 10 16 0 -6
BITMAP
C0C0
E0C0
6180
7180
3300
3300
1E00
1E00
0C00
0C00
0800
1800
1000
3000
3000
2000
ENDCHAR
STARTCHAR 007A
ENCODING 122
SWIDTH 550 0
DWIDTH 11 0
BBX 9 10 1 0
BITMAP
FF80
FF80
0700
0600
0C00
1C00
3800
7000
FF80
FF80
ENDCHAR
STARTCHAR 007B
ENCODING 123
SWIDTH 350 0
DWIDTH 7 0
BBX 7 20 0 -4
BITMAP
0E
1E
30
30
30
30
30
30
30
70
E0
60
30
30
30
30
30
18
1E
0E
ENDCHAR
STARTCHAR 007C
ENCODING 124
SWIDTH 400 0
DWIDTH 8 0
BBX 2 20 3 -4
BITMAP
C0
C0
C0
C0
C0
C0
C0
C0
C0
C0
C0
C0
C0
C0
C0
C0
C0
C0
C0
C0
ENDCHAR
STARTCHAR 007D
ENCODING 125
SWIDTH 350 0
DWIDTH 7 0
BBX 7 20 0 -4
BITMAP
E0
F0
18
18
18
18
18
18
18
1C
0E
0C
18
18
18
18
18
30
F0
E0
ENDCHAR
STARTCHAR 007E
ENCODING 126
SWIDTH 600 0
DWIDTH 12 0
BBX 10 5 1 5
BITMAP
3800
78C0
6CC0
C7C0
C780
ENDCHAR
STARTCHAR 00A0
ENCODING 160
SWIDTH 250 0
DWIDTH 5 0
BBX 1 1 0 0
BITMAP
00
ENDCHAR
STARTCHAR 00A1
ENCODING 161
SWIDTH 200 0
DWIDTH 4 0
BBX 2 16 1 -1
BITMAP
C0
C0
00
C0
C0
C0
C0
C0
C0
C0
C0
C0
C0
C0
C0
C0
ENDCHAR
STARTCHAR 00A2
ENCODING 162
SWIDTH 600 0
DWIDTH 12 0
BBX 9 17 1 0
BITMAP
0C00
0C00
0C00
1E80
3F80
6D80
6C80
CC00
CC00
CC00
CC80
CC80
6D80
7F00
1E00
0C00
0C00
ENDCHAR
STARTCHAR 00A3
ENCODING 163
SWIDTH 750 0
DWIDTH 15 0
BBX 14 18 0 -2
BITMAP
03E0
0FF0
1C38
1818
3000
3000
3000
FFE0
FFE0
1000
1800
1800
1800
1800
380C
7E0C
7FF8
01F0
ENDCHAR
STARTCHAR 00A4
ENCODING 164
SWIDTH 600 0
DWIDTH 12 0
BBX 12 11 0 2
BITMAP
6000
7030
3FF0
1FC0
3180
3180
3180
3F00
6F80
C1C0
C0C0
ENDCHAR
STARTCHAR 00A5
ENCODING 165
SWIDTH 650 0
DWIDTH 13 0
BBX 10 15 2 0
BITMAP
C0C0
C0C0
6180
6180
3100
F3C0
FBC0
1E00
0C00
3F00
3F00
0C00
0C00
0C00
0C00
ENDCHAR
STARTCHAR 00A6
ENCODING 166
SWIDTH 400 0
DWIDTH 8 0
BBX 2 16 3 0
BITMAP
C0
C0
C0
C0
C0
C0
C0
00
00
C0
C0
C0
C0
C0
C0
C0
ENDCHAR
STARTCHAR 00A7
ENCODING 167
SWIDTH 650 0
DWIDTH 13 0
BBX 9 15 2 0
BITMAP
1E00
7F00
6380
6180
7000
FC00
C700
C380
7980
0F00
C180
C180
E180
7F00
3E00
ENDCHAR
STARTCHAR 00A8
ENCODING 168
SWIDTH 550 0
DWIDTH 11 0
BBX 7 2 2 12
BITMAP
C6
C6
ENDCHAR
STARTCHAR 00A9
ENCODING 169
SWIDTH 800 0
DWIDTH 16 0
BBX 14 14 1 2
BITMAP
07E0
1FF0
3838
7798
6F8C
DC0C
D80C
D8CC
CFCC
C798
6038
7070
3FE0
0F80
ENDCHAR
STARTCHAR 00AA
ENCODING 170
SWIDTH 500 0
DWIDTH 10 0
BBX 8 8 1 7
BITMAP
3C
7E
E6
C6
CE
CB
7B
33
ENDCHAR
STARTCHAR 00AB
ENCODING 171
SWIDTH 600 0
DWIDTH 12 0
BBX 9 8 0 2
BITMAP
1980
1980
3300
EE00
CC00
2200
1300
1980
ENDCHAR
STARTCHAR 00AC
ENCODING 172
SWIDTH 450 0
DWIDTH 9 0
BBX 8 5 0 2
BITMAP
FF
FF
03
03
03
ENDCHAR
STARTCHAR 00AD
ENCODING 173
SWIDTH 400 0
DWIDTH 8 0
BBX 6 2 1 5
BITMAP
FC
FC
ENDCHAR
STARTCHAR 00AE
ENCODING 174
SWIDTH 800 0
DWIDTH 16 0
BBX 14 15 1 1
BITMAP
07C0
1FF0
3838
7F98
6FDC
CCCC
CFCC
CF0C
CF0C
D98C
C998
6038
7070
3FE0
0F80
ENDCHAR
STARTCHAR 00AF
ENCODING 175
SWIDTH 650 0
DWIDTH 13 0
BBX 13 2 0 17
BITMAP
FFF8
FFF8
ENDCHAR
STARTCHAR 00B0
ENCODING 176
SWIDTH 450 0
DWIDTH 9 0
BBX 7 7 1 10
BITMAP
38
7C
C6
C6
C6
7C
78
ENDCHAR
STARTCHAR 00B1
ENCODING 177
SWIDTH 500 0
DWIDTH 10 0
BBX 8 12 1 -2
BITMAP
18
18
18
FF
FF
18
18
18
00
00
FF
FF
ENDCHAR
STARTCHAR 00B2
ENCODING 178
SWIDTH 650 0
DWIDTH 13 0
BBX 5 8 4 9
BITMAP
70
F8
98
10
20
C0
F8
F8
ENDCHAR
STARTCHAR 00B3
ENCODING 179
SWIDTH 650 0
DWIDTH 13 0
BBX 6 8 3 9
BITMAP
F8
FC
0C
08
3C
0C
FC
F8
ENDCHAR
STARTCHAR 00B4
ENCODING 180
SWIDTH 450 0
DWIDTH 9 0
BBX 4 4 2 12
BITMAP
30
60
60
C0
ENDCHAR
STARTCHAR 00B5
ENCODING 181
SWIDTH 500 0
DWIDTH 10 0
BBX 11 14 0 -4
BITMAP
1860
1860
18E0
30C0
30C0
30C0
31C0
3180
3F80
3F80
6000
6000
C000
C000
ENDCHAR
STARTCHAR 00B6
ENCODING 182
SWIDTH 700 0
DWIDTH 14 0
BBX 12 17 1 -2
BITMAP
01F0
0FF0
39B0
71B0
61B0
C1B0
C1B0
C1B0
C1B0
E3E0
7F60
1F60
0360
0360
07E0
06C0
06C0
ENDCHAR
STARTCHAR 00B7
ENCODING 183
SWIDTH 250 0
DWIDTH 5 0
BBX 2 2 1 7
BITMAP
C0
C0
ENDCHAR
STARTCHAR 00B8
ENCODING 184
SWIDTH 550 0
DWIDTH 11 0
BBX 5 5 2 -4
BITMAP
60
38
18
18
F0
ENDCHAR
STARTCHAR 00B9
ENCODING 185
SWIDTH 650 0
DWIDTH 13 0
BBX 6 8 4 9
BITMAP
30
F0
F0
30
30
30
FC
FC
ENDCHAR
STARTCHAR 00BA
ENCODING 186
SWIDTH 450 0
DWIDTH 9 0
BBX 8 8 0 9
BITMAP
3C
7E
E7
C3
C3
E7
7E
3C
ENDCHAR
STARTCHAR 00BB
ENCODING 187
SWIDTH 600 0
DWIDTH 12 0
BBX 9 8 2 2
BITMAP
C800
CC00
6600
3B80
1980
2200
4400
CC00
ENDCHAR
STARTCHAR 00BC
ENCODING 188
SWIDTH 650 0
DWIDTH 13 0
BBX 10 23 2 -4
BITMAP
0C00
1C00
3C00
0C00
0C00
0C00
0C00
1E00
1E00
0000
0000
FFC0
FFC0
0000
0C00
1C00
1C00
2C00
6C00
CC00
FF00
0C00
0C00
ENDCHAR
STARTCHAR 00BD
ENCODING 189
SWIDTH 650 0
DWIDTH 13 0
BBX 10 22 2 -3
BITMAP
0C00
1C00
3C00
0C00
0C00
0C00
0C00
1E00
1E00
0000
0000
FFC0
FFC0
0000
1C00
3E00
2600
2600
0C00
1000
3E00
3E00
ENDCHAR
STARTCHAR 00BE
ENCODING 190
SWIDTH 650 0
DWIDTH 13 0
BBX 10 22 2 -4
BITMAP
3C00
3E00
0600
0600
1E00
0600
3E00
3C00
0000
0000
FFC0
FFC0
0000
0C00
0C00
1C00
2C00
6C00
CC00
FF00
0C00
0C00
ENDCHAR
STARTCHAR 00BF
ENCODING 191
SWIDTH 550 0
DWIDTH 11 0
BBX 9 15 1 -1
BITMAP
0300
0300
0000
0200
0600
1C00
3800
6000
C000
C000
C000
E000
7180
3F80
1E00
ENDCHAR
STARTCHAR 00C0
ENCODING 192
SWIDTH 700 0
DWIDTH 14 0
BBX 12 21 1 0
BITMAP
0600
0700
0300
0180
0180
0000
0180
0180
0380
0380
06C0
06C0
0CC0
0CC0
1FC0
3FE0
3860
6060
6070
C030
C030
ENDCHAR
STARTCHAR 00C1
ENCODING 193
SWIDTH 700 0
DWIDTH 14 0
BBX 12 20 1 0
BITMAP
0060
00C0
00C0
0180
0000
0180
0180
0380
0380
06C0
06C0
0CC0
0CC0
1FC0
3FE0
3860
6060
6070
C030
C030
ENDCHAR
STARTCHAR 00C2
ENCODING 194
SWIDTH 700 0
DWIDTH 14 0
BBX 12 20 1 0
BITMAP
0180
03C0
0660
0C30
0000
0180
0180
0380
0380
06C0
06C0
0CC0
0CC0
1FC0
3FE0
3860
6060
6070
C030
C030
ENDCHAR
STARTCHAR 00C3
ENCODING 195
SWIDTH 700 0
DWIDTH 14 0
BBX 12 19 1 0
BITMAP
0F30
1FF0
19E0
0000
0180
0180
0380
0380
06C0
06C0
0CC0
0CC0
1FC0
3FE0
3860
6060
6070
C030
C030
ENDCHAR
STARTCHAR 00C4
ENCODING 196
SWIDTH 700 0
DWIDTH 14 0
BBX 12 18 1 0
BITMAP
0630
0630
0000
0180
0180
0380
0380
06C0
06C0
0CC0
0CC0
1FC0
3FE0
3860
6060
6070
C030
C030
ENDCHAR
STARTCHAR 00C5
ENCODING 197
SWIDTH 700 0
DWIDTH 14 0
BBX 12 19 1 0
BITMAP
03E0
0610
0410
0630
03E0
0180
0380
0380
06C0
06C0
0CC0
0CC0
1FC0
3FE0
3860
6060
6070
C030
C030
ENDCHAR
STARTCHAR 00C6
ENCODING 198
SWIDTH 1050 0
DWIDTH 21 0
BBX 21 17 0 -1
BITMAP
001FF8
003FF8
007800
00D800
019800
039800
071870
07FFF0
0FFF80
1C1800
181800
301800
701800
601800
C01800
C00FF0
000FF0
ENDCHAR
STARTCHAR 00C7
ENCODING 199
SWIDTH 600 0
DWIDTH 12 0
BBX 11 18 0 -3
BITMAP
03E0
0FE0
1C60
3860
3000
6000
6000
C000
C000
C000
C000
C0C0
61C0
7F80
3F00
0600
0200
3C00
ENDCHAR
STARTCHAR 00C8
ENCODING 200
SWIDTH 600 0
DWIDTH 12 0
BBX 10 22 1 0
BITMAP
0C00
0E00
0600
0300
0300
0000
0000
FFC0
FFC0
C000
C000
C000
C000
C780
FF80
F800
C000
C000
C000
C000
FF80
7F80
ENDCHAR
STARTCHAR 00C9
ENCODING 201
SWIDTH 600 0
DWIDTH 12 0
BBX 10 22 1 0
BITMAP
0180
0300
0300
0600
0000
0000
0000
FFC0
FFC0
C000
C000
C000
C000
C780
FF80
F800
C000
C000
C000
C000
FF80
7F80
ENDCHAR
STARTCHAR 00CA
ENCODING 202
SWIDTH 600 0
DWIDTH 12 0
BBX 10 21 1 0
BITMAP
0600
0F00
1980
30C0
0000
0000
FFC0
FFC0
C000
C000
C000
C000
C780
FF80
F800
C000
C000
C000
C000
FF80
7F80
ENDCHAR
STARTCHAR 00CB
ENCODING 203
SWIDTH 600 0
DWIDTH 12 0
BBX 10 20 1 0
BITMAP
18C0
18C0
0000
0000
0000
FFC0
FFC0
C000
C000
C000
C000
C780
FF80
F800
C000
C000
C000
C000
FF80
7F80
ENDCHAR
STARTCHAR 00CC
ENCODING 204
SWIDTH 550 0
DWIDTH 11 0
BBX 8 21 1 0
BITMAP
30
38
18
0C
0C
00
FF
FF
18
18
18
18
18
18
18
18
18
18
18
FF
FF
ENDCHAR
STARTCHAR 00CD
ENCODING 205
SWIDTH 550 0
DWIDTH 11 0
BBX 8 21 1 0
BITMAP
06
0C
0C
18
00
00
FF
FF
18
18
18
18
18
18
18
18
18
18
18
FF
FF
ENDCHAR
STARTCHAR 00CE
ENCODING 206
SWIDTH 550 0
DWIDTH 11 0
BBX 9 21 1 0
BITMAP
0C00
1E00
3300
6180
0000
0000
FF00
FF00
1800
1800
1800
1800
1800
1800
1800
1800
1800
1800
1800
FF00
FF00
ENDCHAR
STARTCHAR 00CF
ENCODING 207
SWIDTH 550 0
DWIDTH 11 0
BBX 8 19 1 0
BITMAP
63
63
00
00
FF
FF
18
18
18
18
18
18
18
18
18
18
18
FF
FF
ENDCHAR
STARTCHAR 00D0
ENCODING 208
SWIDTH 700 0
DWIDTH 14 0
BBX 14 16 0 -1
BITMAP
3800
3E00
3780
31E0
3070
3038
3018
FF0C
FF0C
300C
300C
301C
3018
3078
3FF0
0FC0
ENDCHAR
STARTCHAR 00D1
ENCODING 209
SWIDTH 800 0
DWIDTH 16 0
BBX 14 20 2 0
BITMAP
3CC0
7FC0
6780
0000
0000
C008
E00C
F00C
F00C
D80C
DC0C
CE0C
C70C
C38C
C18C
C0CC
C06C
C03C
C01C
C00C
ENDCHAR
STARTCHAR 00D2
ENCODING 210
SWIDTH 800 0
DWIDTH 16 0
BBX 14 21 1 0
BITMAP
0300
0380
0180
00C0
00C0
0000
07E0
1FF0
3C38
301C
600C
600C
C00C
C00C
C00C
C018
C018
6030
7070
3FE0
0F80
ENDCHAR
STARTCHAR 00D3
ENCODING 211
SWIDTH 800 0
DWIDTH 16 0
BBX 14 20 1 0
BITMAP
0030
0060
0060
00C0
0000
07E0
1FF0
3C38
301C
600C
600C
C00C
C00C
C00C
C018
C018
6030
7070
3FE0
0F80
ENDCHAR
STARTCHAR 00D4
ENCODING 212
SWIDTH 800 0
DWIDTH 16 0
BBX 14 20 1 0
BITMAP
00C0
01E0
0330
0618
0000
07E0
1FF0
3C38
301C
600C
600C
C00C
C00C
C00C
C018
C018
6030
7070
3FE0
0F80
ENDCHAR
STARTCHAR 00D5
ENCODING 213
SWIDTH 800 0
DWIDTH 16 0
BBX 14 19 1 0
BITMAP
0F30
1FF0
19E0
0000
07E0
1FF0
3C38
301C
600C
600C
C00C
C00C
C00C
C018
C018
6030
7070
3FE0
0F80
ENDCHAR
STARTCHAR 00D6
ENCODING 214
SWIDTH 800 0
DWIDTH 16 0
BBX 14 19 1 0
BITMAP
0C60
0C60
0000
0000
07E0
1FF0
3C38
301C
600C
600C
C00C
C00C
C00C
C018
C018
6030
7070
3FE0
0F80
ENDCHAR
STARTCHAR 00D7
ENCODING 215
SWIDTH 500 0
DWIDTH 10 0
BBX 8 8 1 2
BITMAP
C3
E7
7C
38
3C
3C
66
66
ENDCHAR
STARTCHAR 00D8
ENCODING 216
SWIDTH 800 0
DWIDTH 16 0
BBX 15 16 1 -1
BITMAP
07E6
0FFE
1C18
303C
606C
60CC
C18C
C38C
C70C
C618
CC18
F838
7070
7FE0
CF80
8000
ENDCHAR
STARTCHAR 00D9
ENCODING 217
SWIDTH 750 0
DWIDTH 15 0
BBX 12 21 2 0
BITMAP
1800
1C00
0C00
0600
0600
0000
C030
C030
C030
C030
C030
C030
C030
C030
C030
C060
C060
6060
70C0
3FC0
1F00
ENDCHAR
STARTCHAR 00DA
ENCODING 218
SWIDTH 750 0
DWIDTH 15 0
BBX 12 20 2 0
BITMAP
0180
0300
0300
0600
0000
C030
C030
C030
C030
C030
C030
C030
C030
C030
C060
C060
6060
70C0
3FC0
1F00
ENDCHAR
STARTCHAR 00DB
ENCODING 219
SWIDTH 750 0
DWIDTH 15 0
BBX 12 20 2 0
BITMAP
0600
0F00
1980
30C0
0000
C030
C030
C030
C030
C030
C030
C030
C030
C030
C060
C060
6060
70C0
3FC0
1F00
ENDCHAR
STARTCHAR 00DC
ENCODING 220
SWIDTH 750 0
DWIDTH 15 0
BBX 12 18 2 0
BITMAP
3180
3180
0000
C030
C030
C030
C030
C030
C030
C030
C030
C030
C060
C060
6060
70C0
3FC0
1F00
ENDCHAR
STARTCHAR 00DD
ENCODING 221
SWIDTH 650 0
DWIDTH 13 0
BBX 12 22 0 -1
BITMAP
00C0
0180
0180
0300
0000
0000
C030
E030
6060
3060
30C0
18C0
1980
0D80
0780
0700
0300
0600
0600
0C00
0C00
0800
ENDCHAR
STARTCHAR 00DE
ENCODING 222
SWIDTH 500 0
DWIDTH 10 0
BBX 9 15 1 0
BITMAP
C000
C000
FC00
FF00
C380
C180
C180
C180
C700
FF00
FC00
C000
C000
C000
C000
ENDCHAR
STARTCHAR 00DF
ENCODING 223
SWIDTH 450 0
DWIDTH 9 0
BBX 8 18 1 -2
BITMAP
3C
7E
63
E3
C3
C3
C6
CE
CC
C6
C3
C3
C3
E3
FF
DE
C0
C0
ENDCHAR
STARTCHAR 00E0
ENCODING 224
SWIDTH 500 0
DWIDTH 10 0
BBX 9 16 1 0
BITMAP
3000
3800
1800
0C00
0C00
0000
1E00
3F00
7300
E300
C300
C300
C300
E300
7F80
3D80
ENDCHAR
STARTCHAR 00E1
ENCODING 225
SWIDTH 500 0
DWIDTH 10 0
BBX 9 16 1 0
BITMAP
0300
0600
0600
0C00
0000
0000
1E00
3F00
7300
E300
C300
C300
C300
E300
7F80
3D80
ENDCHAR
STARTCHAR 00E2
ENCODING 226
SWIDTH 500 0
DWIDTH 10 0
BBX 9 15 1 0
BITMAP
0C00
1E00
3300
6180
0000
1E00
3F00
7300
E300
C300
C300
C300
E300
7F80
3D80
ENDCHAR
STARTCHAR 00E3
ENCODING 227
SWIDTH 500 0
DWIDTH 10 0
BBX 9 15 1 0
BITMAP
7980
FF80
CF00
0000
0000
1E00
3F00
7300
E300
C300
C300
C300
E300
7F80
3D80
ENDCHAR
STARTCHAR 00E4
ENCODING 228
SWIDTH 500 0
DWIDTH 10 0
BBX 9 14 1 0
BITMAP
6300
6300
0000
0000
1E00
3F00
7300
E300
C300
C300
C300
E300
7F80
3D80
ENDCHAR
STARTCHAR 00E5
ENCODING 229
SWIDTH 500 0
DWIDTH 10 0
BBX 9 17 1 0
BITMAP
1F00
3080
2080
3180
1F00
0000
0000
1E00
3F00
7300
E300
C300
C300
C300
E300
7F80
3D80
ENDCHAR
STARTCHAR 00E6
ENCODING 230
SWIDTH 900 0
DWIDTH 18 0
BBX 17 10 1 0
BITMAP
1E3E00
3FFF00
71C300
E19E00
C1F800
C1C000
C18180
E1C380
7FFF00
3DBE00
ENDCHAR
STARTCHAR 00E7
ENCODING 231
SWIDTH 500 0
DWIDTH 10 0
BBX 9 13 0 -3
BITMAP
1E00
3F80
7180
6000
C000
C000
C000
E180
7F80
3F00
0600
0600
3C00
ENDCHAR
STARTCHAR 00E8
ENCODING 232
SWIDTH 550 0
DWIDTH 11 0
BBX 9 16 1 0
BITMAP
3000
3800
1800
0C00
0C00
0000
1F00
3F80
6180
C700
FE00
F800
E080
E180
7F00
3E00
ENDCHAR
STARTCHAR 00E9
ENCODING 233
SWIDTH 550 0
DWIDTH 11 0
BBX 9 16 1 0
BITMAP
0300
0600
0600
0C00
0000
0000
1F00
3F80
6180
C700
FE00
F800
E080
E180
7F00
3E00
ENDCHAR
STARTCHAR 00EA
ENCODING 234
SWIDTH 550 0
DWIDTH 11 0
BBX 9 16 1 0
BITMAP
0C00
1E00
3300
6180
0000
0000
1F00
3F80
6180
C700
FE00
F800
E080
E180
7F00
3E00
ENDCHAR
STARTCHAR 00EB
ENCODING 235
SWIDTH 550 0
DWIDTH 11 0
BBX 9 15 1 0
BITMAP
6300
6300
0000
0000
0000
1F00
3F80
6180
C700
FE00
F800
E080
E180
7F00
3E00
ENDCHAR
STARTCHAR 00EC
ENCODING 236
SWIDTH 300 0
DWIDTH 6 0
BBX 4 16 0 0
BITMAP
C0
E0
60
30
30
00
30
30
30
30
30
30
30
30
30
30
ENDCHAR
STARTCHAR 00ED
ENCODING 237
SWIDTH 300 0
DWIDTH 6 0
BBX 4 16 1 0
BITMAP
30
60
60
C0
00
00
60
60
60
60
60
60
60
60
60
60
ENDCHAR
STARTCHAR 00EE
ENCODING 238
SWIDTH 300 0
DWIDTH 6 0
BBX 8 15 -1 0
BITMAP
18
3C
66
C3
00
18
18
18
18
18
18
18
18
18
18
ENDCHAR
STARTCHAR 00EF
ENCODING 239
SWIDTH 300 0
DWIDTH 6 0
BBX 7 14 -1 0
BITMAP
C6
C6
00
00
18
18
18
18
18
18
18
18
18
18
ENDCHAR
STARTCHAR 00F0
ENCODING 240
SWIDTH 500 0
DWIDTH 10 0
BBX 8 16 1 0
BITMAP
60
70
37
3E
7C
66
06
06
3F
73
43
C3
C3
E6
7E
3C
ENDCHAR
STARTCHAR 00F1
ENCODING 241
SWIDTH 500 0
DWIDTH 10 0
BBX 9 15 1 0
BITMAP
7980
FF80
CF00
0000
0000
CE00
FF00
F300
E300
C300
C300
C300
C300
C300
C300
ENDCHAR
STARTCHAR 00F2
ENCODING 242
SWIDTH 550 0
DWIDTH 11 0
BBX 9 16 1 0
BITMAP
3000
3800
1800
0C00
0C00
0000
1E00
7F00
6380
C180
C180
C180
C180
E300
7F00
3C00
ENDCHAR
STARTCHAR 00F3
ENCODING 243
SWIDTH 550 0
DWIDTH 11 0
BBX 9 16 1 0
BITMAP
0300
0600
0600
0C00
0000
0000
1E00
7F00
6380
C180
C180
C180
C180
E300
7F00
3C00
ENDCHAR
STARTCHAR 00F4
ENCODING 244
SWIDTH 550 0
DWIDTH 11 0
BBX 9 16 1 0
BITMAP
0C00
1E00
3300
6180
0000
0000
1E00
7F00
6380
C180
C180
C180
C180
E300
7F00
3C00
ENDCHAR
STARTCHAR 00F5
ENCODING 245
SWIDTH 550 0
DWIDTH 11 0
BBX 9 15 1 0
BITMAP
7980
FF80
CF00
0000
0000
1E00
7F00
6380
C180
C180
C180
C180
E300
7F00
3C00
ENDCHAR
STARTCHAR 00F6
ENCODING 246
SWIDTH 550 0
DWIDTH 11 0
BBX 9 14 1 0
BITMAP
6300
6300
0000
0000
1E00
7F00
6380
C180
C180
C180
C180
E300
7F00
3C00
ENDCHAR
STARTCHAR 00F7
ENCODING 247
SWIDTH 450 0
DWIDTH 9 0
BBX 8 10 0 2
BITMAP
08
08
00
00
FF
FF
00
00
08
08
ENDCHAR
STARTCHAR 00F8
ENCODING 248
SWIDTH 550 0
DWIDTH 11 0
BBX 10 10 1 0
BITMAP
1E40
3F80
6380
E780
CD80
C980
D180
E300
7F00
BE00
ENDCHAR
STARTCHAR 00F9
ENCODING 249
SWIDTH 500 0
DWIDTH 10 0
BBX 8 16 1 0
BITMAP
30
38
18
0C
0C
00
C3
C3
C3
C3
C3
C3
C3
C3
FF
7F
ENDCHAR
STARTCHAR 00FA
ENCODING 250
SWIDTH 500 0
DWIDTH 10 0
BBX 8 16 1 0
BITMAP
03
06
06
0C
00
00
C3
C3
C3
C3
C3
C3
C3
C3
FF
7F
ENDCHAR
STARTCHAR 00FB
ENCODING 251
SWIDTH 500 0
DWIDTH 10 0
BBX 8 15 1 0
BITMAP
18
3C
66
C3
00
C3
C3
C3
C3
C3
C3
C3
C3
FF
7F
ENDCHAR
STARTCHAR 00FC
ENCODING 252
SWIDTH 500 0
DWIDTH 10 0
BBX 8 15 1 0
BITMAP
63
63
00
00
00
C3
C3
C3
C3
C3
C3
C3
C3
FF
7F
ENDCHAR
STARTCHAR 00FD
ENCODING 253
SWIDTH 500 0
DWIDTH 10 0
BBX 10 22 0 -6
BITMAP
0600
0C00
0C00
1800
0000
0000
C0C0
E0C0
6180
7180
3300
3300
1E00
1E00
0C00
0C00
0800
1800
1000
3000
3000
2000
ENDCHAR
STARTCHAR 00FE
ENCODING 254
SWIDTH 550 0
DWIDTH 11 0
BBX 8 22 1 -6
BITMAP
C0
C0
C0
C0
C0
C0
DC
FE
E7
C3
C3
C3
C3
C7
FE
FC
C0
C0
C0
C0
C0
C0
ENDCHAR
STARTCHAR 00FF
ENCODING 255
SWIDTH 500 0
DWIDTH 10 0
BBX 10 20 0 -6
BITMAP
6300
6300
0000
0000
C0C0
E0C0
6180
7180
3300
3300
1E00
1E00
0C00
0C00
0800
1800
1000
3000
3000
2000
ENDCHAR
STARTCHAR 0100
ENCODING 256
SWIDTH 700 0
DWIDTH 14 0
BBX 12 17 1 0
BITMAP
07F0
0000
0180
0180
0380
0380
06C0
06C0
0CC0
0CC0
1FC0
3FE0
3860
6060
6070
C030
C030
ENDCHAR
STARTCHAR 0101
ENCODING 257
SWIDTH 500 0
DWIDTH 10 0
BBX 9 13 1 0
BITMAP
3F80
0000
0000
1E00
3F00
7300
E300
C300
C300
C300
E300
7F80
3D80
ENDCHAR
STARTCHAR 0102
ENCODING 258
SWIDTH 700 0
DWIDTH 14 0
BBX 13 19 1 0
BITMAP
0408
0618
03E0
0000
0180
0180
0380
0380
06C0
06C0
0CC0
0CC0
1FC0
3FE0
3860
6060
6070
C030
C030
ENDCHAR
STARTCHAR 0103
ENCODING 259
SWIDTH 500 0
DWIDTH 10 0
BBX 9 15 1 0
BITMAP
4080
6180
3E00
0000
0000
1E00
3F00
7300
E300
C300
C300
C300
E300
7F80
3D80
ENDCHAR
STARTCHAR 0104
ENCODING 260
SWIDTH 750 0
DWIDTH 15 0
BBX 15 18 1 -3
BITMAP
0080
00C0
01C0
01C0
0340
0240
0660
0C60
1DE0
3FE0
3E30
7030
6030
E018
C038
0020
0020
001E
ENDCHAR
STARTCHAR 0105
ENCODING 261
SWIDTH 500 0
DWIDTH 10 0
BBX 12 12 1 -2
BITMAP
1E00
3F00
7300
E300
C300
C300
C300
E700
7F80
3D80
0100
00F0
ENDCHAR
STARTCHAR 0106
ENCODING 262
SWIDTH 600 0
DWIDTH 12 0
BBX 11 20 0 0
BITMAP
0060
00C0
00C0
0180
0000
03E0
0FE0
1C60
3860
3000
6000
6000
C000
C000
C000
C000
C0C0
61C0
7F80
1E00
ENDCHAR
STARTCHAR 0107
ENCODING 263
SWIDTH 500 0
DWIDTH 10 0
BBX 8 16 1 0
BITMAP
03
06
06
0C
00
00
1E
3F
73
60
C0
C0
C0
E3
7F
3C
ENDCHAR
STARTCHAR 0108
ENCODING 264
SWIDTH 600 0
DWIDTH 12 0
BBX 12 20 0 0
BITMAP
0180
03C0
0660
0C30
0000
03E0
0FE0
1C60
3860
3000
6000
6000
C000
C000
C000
C000
C0C0
61C0
7F80
1E00
ENDCHAR
STARTCHAR 0109
ENCODING 265
SWIDTH 500 0
DWIDTH 10 0
BBX 9 16 1 0
BITMAP
0C00
1E00
3300
6180
0000
0000
1E00
3F00
7300
6000
C000
C000
C000
E300
7F00
3C00
ENDCHAR
STARTCHAR 010A
ENCODING 266
SWIDTH 600 0
DWIDTH 12 0
BBX 11 18 0 0
BITMAP
0180
0180
0000
03E0
0FE0
1C60
3860
3000
6000
6000
C000
C000
C000
C000
C0C0
61C0
7F80
1E00
ENDCHAR
STARTCHAR 010B
ENCODING 267
SWIDTH 500 0
DWIDTH 10 0
BBX 8 14 1 0
BITMAP
0C
0C
00
00
1E
3F
73
60
C0
C0
C0
E3
7F
3C
ENDCHAR
STARTCHAR 010C
ENCODING 268
SWIDTH 600 0
DWIDTH 12 0
BBX 12 21 0 0
BITMAP
0400
0630
0370
01C0
0080
0000
03E0
0FE0
1C60
3860
3000
6000
6000
C000
C000
C000
C000
C0C0
61C0
7F80
1E00
ENDCHAR
STARTCHAR 010D
ENCODING 269
SWIDTH 600 0
DWIDTH 12 0
BBX 9 16 1 0
BITMAP
2000
3180
1B80
0E00
0400
0000
1E00
3F00
7300
6000
C000
C000
C000
E300
7F00
3C00
ENDCHAR
STARTCHAR 010E
ENCODING 270
SWIDTH 700 0
DWIDTH 14 0
BBX 12 21 1 0
BITMAP
1000
18C0
0DC0
0700
0200
0000
E000
F800
DE00
C380
C1C0
C060
C060
C030
C030
C030
C030
C060
C0E0
FFC0
3F00
ENDCHAR
STARTCHAR 010F
ENCODING 271
SWIDTH 850 0
DWIDTH 17 0
BBX 14 16 1 0
BITMAP
019C
019C
018C
019C
0198
0180
3D80
7F80
6380
C180
C180
C180
C180
E380
7F80
3D80
ENDCHAR
STARTCHAR 0110
ENCODING 272
SWIDTH 700 0
DWIDTH 14 0
BBX 14 16 0 -1
BITMAP
3800
3E00
3780
31E0
3070
3038
3018
FF0C
FF0C
300C
300C
301C
3018
3078
3FF0
0FC0
ENDCHAR
STARTCHAR 0111
ENCODING 273
SWIDTH 600 0
DWIDTH 12 0
BBX 11 16 1 0
BITMAP
0180
0180
0180
0FE0
0FE0
0180
3D80
7F80
6180
C180
C180
C180
C180
E380
7F80
3D80
ENDCHAR
STARTCHAR 0112
ENCODING 274
SWIDTH 600 0
DWIDTH 12 0
BBX 10 18 1 0
BITMAP
3F80
0000
0000
FFC0
FFC0
C000
C000
C000
C000
C780
FF80
F800
C000
C000
C000
C000
FF80
7F80
ENDCHAR
STARTCHAR 0113
ENCODING 275
SWIDTH 550 0
DWIDTH 11 0
BBX 9 13 1 0
BITMAP
3F80
0000
0000
1F00
3F80
6180
C700
FE00
F800
E080
E180
7F00
3E00
ENDCHAR
STARTCHAR 0114
ENCODING 276
SWIDTH 600 0
DWIDTH 12 0
BBX 10 20 1 0
BITMAP
2040
30C0
1F00
0000
0000
FFC0
FFC0
C000
C000
C000
C000
C780
FF80
F800
C000
C000
C000
C000
FF80
7F80
ENDCHAR
STARTCHAR 0115
ENCODING 277
SWIDTH 550 0
DWIDTH 11 0
BBX 9 15 1 0
BITMAP
4080
6180
3E00
0000
0000
1F00
3F80
6180
C700
FE00
F800
E080
E180
7F00
3E00
ENDCHAR
STARTCHAR 0116
ENCODING 278
SWIDTH 600 0
DWIDTH 12 0
BBX 10 19 1 0
BITMAP
0600
0600
0000
0000
FFC0
FFC0
C000
C000
C000
C000
C780
FF80
F800
C000
C000
C000
C000
FF80
7F80
ENDCHAR
STARTCHAR 0117
ENCODING 279
SWIDTH 550 0
DWIDTH 11 0
BBX 9 14 1 0
BITMAP
0C00
0C00
0000
0000
1F00
3F80
6180
C700
FE00
F800
E080
E180
7F00
3E00
ENDCHAR
STARTCHAR 0118
ENCODING 280
SWIDTH 600 0
DWIDTH 12 0
BBX 11 18 2 -3
BITMAP
FFE0
FFE0
C000
C000
C000
C7C0
FFC0
FC00
C000
C000
C000
C000
C000
FFC0
3FC0
0200
0200
01E0
ENDCHAR
STARTCHAR 0119
ENCODING 281
SWIDTH 550 0
DWIDTH 11 0
BBX 10 13 1 -3
BITMAP
1F00
3F80
6180
C780
DE00
F800
C0C0
E1C0
7F80
1F00
0400
0400
03C0
ENDCHAR
STARTCHAR 011A
ENCODING 282
SWIDTH 600 0
DWIDTH 12 0
BBX 10 21 1 0
BITMAP
1000
18C0
0DC0
0700
0200
0000
FFC0
FFC0
C000
C000
C000
C000
C780
FF80
F800
C000
C000
C000
C000
FF80
7F80
ENDCHAR
STARTCHAR 011B
ENCODING 283
SWIDTH 550 0
DWIDTH 11 0
BBX 9 16 1 0
BITMAP
2000
3180
1B80
0E00
0400
0000
1F00
3F80
6180
C700
FE00
F800
E080
E180
7F00
3E00
ENDCHAR
STARTCHAR 011C
ENCODING 284
SWIDTH 700 0
DWIDTH 14 0
BBX 12 20 1 0
BITMAP
0600
0F00
1980
30C0
0000
0700
1FC0
18C0
3000
7000
6000
6000
C3F0
CFF0
CC60
C0E0
C0C0
E180
7F00
3E00
ENDCHAR
STARTCHAR 011D
ENCODING 285
SWIDTH 550 0
DWIDTH 11 0
BBX 9 22 1 -6
BITMAP
0C00
1E00
3300
6180
0000
0000
1F00
3F80
7180
E180
C180
C180
C380
E780
7D80
3980
0180
0180
0300
0700
FE00
7C00
ENDCHAR
STARTCHAR 011E
ENCODING 286
SWIDTH 700 0
DWIDTH 14 0
BBX 12 19 1 0
BITMAP
1020
1860
0F80
0000
0700
1FC0
18C0
3000
7000
6000
6000
C3F0
CFF0
CC60
C0E0
C0C0
E180
7F00
3E00
ENDCHAR
STARTCHAR 011F
ENCODING 287
SWIDTH 550 0
DWIDTH 11 0
BBX 10 21 1 -6
BITMAP
2040
30C0
1F00
0000
0000
1F00
3F80
7180
E180
C180
C180
C380
E780
7D80
3980
0180
0180
0300
0700
FE00
7C00
ENDCHAR
STARTCHAR 0120
ENCODING 288
SWIDTH 700 0
DWIDTH 14 0
BBX 12 18 1 0
BITMAP
0180
0180
0000
0700
1FC0
18C0
3000
7000
6000
6000
C3F0
CFF0
CC60
C0E0
C0C0
E180
7F00
3E00
ENDCHAR
STARTCHAR 0121
ENCODING 289
SWIDTH 550 0
DWIDTH 11 0
BBX 9 20 1 -6
BITMAP
0600
0600
0000
0000
1F00
3F80
7180
E180
C180
C180
C380
E780
7D80
3980
0180
0180
0300
0700
FE00
7C00
ENDCHAR
STARTCHAR 0122
ENCODING 290
SWIDTH 700 0
DWIDTH 14 0
BBX 13 18 1 -3
BITMAP
0780
0FE0
1C60
3800
7000
6000
6000
C3F8
CFF8
CE10
C030
C060
E0E0
7FC0
1F80
0600
0600
3C00
ENDCHAR
STARTCHAR 0123
ENCODING 291
SWIDTH 550 0
DWIDTH 11 0
BBX 9 23 1 -6
BITMAP
0600
0C00
0E00
0E00
0000
0000
0000
1F00
3F80
7180
E180
C180
C180
C380
E780
7D80
3980
0180
0180
0300
0700
FE00
7C00
ENDCHAR
STARTCHAR 0124
ENCODING 292
SWIDTH 750 0
DWIDTH 15 0
BBX 13 20 1 0
BITMAP
0300
0780
0CC0
1860
0000
C018
C018
C018
C018
C018
C018
C018
C3F8
FFF8
FC18
C018
C018
C018
C018
C018
ENDCHAR
STARTCHAR 0125
ENCODING 293
SWIDTH 600 0
DWIDTH 12 0
BBX 9 20 2 0
BITMAP
0C00
1E00
3300
6180
C000
C000
C000
C000
C000
C000
CE00
FF00
F300
E300
C300
C300
C300
C300
C300
C300
ENDCHAR
STARTCHAR 0126
ENCODING 294
SWIDTH 750 0
DWIDTH 15 0
BBX 15 15 0 0
BITMAP
3008
3018
3018
FFFE
FFFE
3018
3018
31F8
3FF8
3E18
3018
3018
3018
3018
3018
ENDCHAR
STARTCHAR 0127
ENCODING 295
SWIDTH 600 0
DWIDTH 12 0
BBX 10 16 0 0
BITMAP
3000
3000
3000
FF00
FF00
3000
3380
3FC0
3CC0
38C0
30C0
30C0
30C0
30C0
30C0
30C0
ENDCHAR
STARTCHAR 0128
ENCODING 296
SWIDTH 550 0
DWIDTH 11 0
BBX 9 19 0 0
BITMAP
7980
FF80
CF00
0000
7F80
7F80
0C00
0C00
0C00
0C00
0C00
0C00
0C00
0C00
0C00
0C00
0C00
7F80
7F80
ENDCHAR
STARTCHAR 0129
ENCODING 297
SWIDTH 300 0
DWIDTH 6 0
BBX 9 15 -2 0
BITMAP
7980
FF80
CF00
0000
0000
0C00
0C00
0C00
0C00
0C00
0C00
0C00
0C00
0C00
0C00
ENDCHAR
STARTCHAR 012A
ENCODING 298
SWIDTH 550 0
DWIDTH 11 0
BBX 8 17 1 0
BITMAP
7F
00
FF
FF
18
18
18
18
18
18
18
18
18
18
18
FF
FF
ENDCHAR
STARTCHAR 012B
ENCODING 299
SWIDTH 300 0
DWIDTH 6 0
BBX 7 13 0 0
BITMAP
FE
00
00
30
30
30
30
30
30
30
30
30
30
ENDCHAR
STARTCHAR 012C
ENCODING 300
SWIDTH 550 0
DWIDTH 11 0
BBX 8 19 1 0
BITMAP
81
C3
7C
00
FF
FF
18
18
18
18
18
18
18
18
18
18
18
FF
FF
ENDCHAR
STARTCHAR 012D
ENCODING 301
SWIDTH 300 0
DWIDTH 6 0
BBX 8 15 -1 0
BITMAP
81
C3
7C
00
00
18
18
18
18
18
18
18
18
18
18
ENDCHAR
STARTCHAR 012E
ENCODING 302
SWIDTH 550 0
DWIDTH 11 0
BBX 8 17 1 -2
BITMAP
FF
FF
18
18
18
18
18
18
18
18
18
18
18
FF
FF
20
1E
ENDCHAR
STARTCHAR 012F
ENCODING 303
SWIDTH 300 0
DWIDTH 6 0
BBX 5 16 1 -2
BITMAP
60
60
00
00
60
60
60
60
60
60
60
60
60
E0
80
78
ENDCHAR
STARTCHAR 0130
ENCODING 304
SWIDTH 550 0
DWIDTH 11 0
BBX 8 18 1 0
BITMAP
18
18
00
FF
FF
18
18
18
18
18
18
18
18
18
18
18
FF
FF
ENDCHAR
STARTCHAR 0131
ENCODING 305
SWIDTH 300 0
DWIDTH 6 0
BBX 2 10 2 0
BITMAP
C0
C0
C0
C0
C0
C0
C0
C0
C0
C0
ENDCHAR
STARTCHAR 0132
ENCODING 306
SWIDTH 1150 0
DWIDTH 23 0
BBX 20 15 1 0
BITMAP
FF1FF0
FF1FF0
180180
180180
180180
180180
180180
180180
180180
186180
186180
186180
183380
FF1F80
FF0F00
ENDCHAR
STARTCHAR 0133
ENCODING 307
SWIDTH 550 0
DWIDTH 11 0
BBX 7 20 2 -6
BITMAP
C6
C6
00
00
C6
C6
C6
C6
C6
C6
C6
C6
C6
C6
06
C6
C6
66
7C
38
ENDCHAR
STARTCHAR 0134
ENCODING 308
SWIDTH 650 0
DWIDTH 13 0
BBX 11 20 1 0
BITMAP
0300
0780
0CC0
1860
0000
3FE0
3FE0
0300
0300
0300
0300
0300
0300
0300
C300
C300
C300
6700
3F00
1E00
ENDCHAR
STARTCHAR 0135
ENCODING 309
SWIDTH 400 0
DWIDTH 8 0
BBX 9 22 -1 -6
BITMAP
0C00
1E00
3F00
7380
6180
0000
0600
0600
0600
0600
0600
0600
0600
0600
0600
0600
0600
C600
C600
6600
7C00
3800
ENDCHAR
STARTCHAR 0136
ENCODING 310
SWIDTH 600 0
DWIDTH 12 0
BBX 10 19 1 -4
BITMAP
C180
C380
C700
C600
CE00
DC00
F800
F000
F000
F800
DC00
CE00
C700
C3C0
D8C0
0E00
0600
0600
3C00
ENDCHAR
STARTCHAR 0137
ENCODING 311
SWIDTH 550 0
DWIDTH 11 0
BBX 9 19 1 -4
BITMAP
C000
C000
C000
C000
C000
C100
C300
C600
CC00
F800
FC00
C600
C300
C180
F180
1C00
0C00
0C00
7800
ENDCHAR
STARTCHAR 0138
ENCODING 312
SWIDTH 550 0
DWIDTH 11 0
BBX 8 10 1 0
BITMAP
C3
C7
CE
D8
F8
EC
CE
C6
C3
C3
ENDCHAR
STARTCHAR 0139
ENCODING 313
SWIDTH 550 0
DWIDTH 11 0
BBX 9 20 1 0
BITMAP
0C00
1800
1800
3000
0000
C000
C000
C000
C000
C000
C000
C000
C000
C000
C000
C000
C000
C000
FF80
FF80
ENDCHAR
STARTCHAR 013A
ENCODING 314
SWIDTH 250 0
DWIDTH 5 0
BBX 4 21 2 0
BITMAP
30
60
60
C0
00
C0
C0
C0
C0
C0
C0
C0
C0
C0
C0
C0
C0
C0
C0
C0
C0
ENDCHAR
STARTCHAR 013B
ENCODING 315
SWIDTH 550 0
DWIDTH 11 0
BBX 10 18 1 -3
BITMAP
C000
C000
C000
C000
C000
C000
C000
C000
C000
C000
C000
C000
C000
FFC0
FFC0
0600
0600
3C00
ENDCHAR
STARTCHAR 013C
ENCODING 316
SWIDTH 250 0
DWIDTH 5 0
BBX 5 18 1 -3
BITMAP
60
60
60
60
60
60
60
60
60
60
60
60
60
70
78
18
18
F0
ENDCHAR
STARTCHAR 013D
ENCODING 317
SWIDTH 550 0
DWIDTH 11 0
BBX 9 15 1 0
BITMAP
C700
C700
C300
C700
C600
C000
C000
C000
C000
C000
C000
C000
C000
FF80
FF80
ENDCHAR
STARTCHAR 013E
ENCODING 318
SWIDTH 450 0
DWIDTH 9 0
BBX 6 16 2 0
BITMAP
DC
DC
CC
DC
D8
C0
C0
C0
C0
C0
C0
C0
C0
C0
C0
C0
ENDCHAR
STARTCHAR 013F
ENCODING 319
SWIDTH 550 0
DWIDTH 11 0
BBX 9 15 1 0
BITMAP
C000
C000
C000
C000
C000
C000
C000
C300
C300
C000
C000
C000
C000
FF80
FF80
ENDCHAR
STARTCHAR 0140
ENCODING 320
SWIDTH 400 0
DWIDTH 8 0
BBX 6 16 2 0
BITMAP
C0
C0
C0
C0
C0
C0
C0
C0
CC
CC
C0
C0
C0
C0
C0
C0
ENDCHAR
STARTCHAR 0141
ENCODING 321
SWIDTH 550 0
DWIDTH 11 0
BBX 12 15 -1 0
BITMAP
3000
3000
3000
3000
3000
3E00
3C00
7000
F000
F000
3000
3000
3000
3FF0
3FF0
ENDCHAR
STARTCHAR 0142
ENCODING 322
SWIDTH 250 0
DWIDTH 5 0
BBX 6 16 0 0
BITMAP
30
30
30
30
30
3C
3C
38
70
F0
F0
30
30
30
30
30
ENDCHAR
STARTCHAR 0143
ENCODING 323
SWIDTH 800 0
DWIDTH 16 0
BBX 14 20 2 0
BITMAP
0180
0300
0300
0600
0000
C008
E00C
F00C
F00C
D80C
DC0C
CE0C
C70C
C38C
C18C
C0CC
C06C
C03C
C01C
C00C
ENDCHAR
STARTCHAR 0144
ENCODING 324
SWIDTH 500 0
DWIDTH 10 0
BBX 8 16 1 0
BITMAP
06
0C
0C
18
00
00
CE
FF
F3
E3
C3
C3
C3
C3
C3
C3
ENDCHAR
STARTCHAR 0145
ENCODING 325
SWIDTH 800 0
DWIDTH 16 0
BBX 14 19 2 -4
BITMAP
C008
E00C
F00C
F00C
D80C
DC0C
CE0C
C70C
C38C
C18C
C0CC
C06C
C03C
C01C
D80C
0E00
0600
0600
3C00
ENDCHAR
STARTCHAR 0146
ENCODING 326
SWIDTH 500 0
DWIDTH 10 0
BBX 8 14 1 -4
BITMAP
CE
FF
F3
E3
C3
C3
C3
C3
C3
F3
1C
0C
0C
78
ENDCHAR
STARTCHAR 0147
ENCODING 327
SWIDTH 800 0
DWIDTH 16 0
BBX 14 20 2 0
BITMAP
1000
18C0
0DC0
0700
0200
C008
E00C
F00C
F00C
D80C
DC0C
CE0C
C70C
C38C
C18C
C0CC
C06C
C03C
C01C
C00C
ENDCHAR
STARTCHAR 0148
ENCODING 328
SWIDTH 500 0
DWIDTH 10 0
BBX 8 16 1 0
BITMAP
40
63
37
1C
08
00
CE
FF
F3
E3
C3
C3
C3
C3
C3
C3
ENDCHAR
STARTCHAR 0149
ENCODING 329
SWIDTH 600 0
DWIDTH 12 0
BBX 11 15 0 0
BITMAP
6000
6000
E000
C000
C000
19C0
1FE0
1E60
1C60
1860
1860
1860
1860
1860
1860
ENDCHAR
STARTCHAR 014A
ENCODING 330
SWIDTH 800 0
DWIDTH 16 0
BBX 13 19 2 -4
BITMAP
C030
E038
E038
F018
F018
D818
CC18
C418
C618
C318
C198
C0D8
C078
C038
C018
0018
0018
01F0
01E0
ENDCHAR
STARTCHAR 014B
ENCODING 331
SWIDTH 500 0
DWIDTH 10 0
BBX 7 16 2 -6
BITMAP
DC
FE
F6
E6
C6
C6
C6
C6
C6
C6
06
06
66
66
3C
3C
ENDCHAR
STARTCHAR 014C
ENCODING 332
SWIDTH 800 0
DWIDTH 16 0
BBX 14 17 1 0
BITMAP
07F0
0000
07E0
1FF0
3C38
301C
600C
600C
C00C
C00C
C00C
C018
C018
6030
7070
3FE0
0F80
ENDCHAR
STARTCHAR 014D
ENCODING 333
SWIDTH 550 0
DWIDTH 11 0
BBX 9 13 1 0
BITMAP
7F00
0000
0000
1E00
7F00
6380
C180
C180
C180
C180
E300
7F00
3C00
ENDCHAR
STARTCHAR 014E
ENCODING 334
SWIDTH 800 0
DWIDTH 16 0
BBX 14 19 1 0
BITMAP
0810
0C30
07C0
0000
07E0
1FF0
3C38
301C
600C
600C
C00C
C00C
C00C
C018
C018
6030
7070
3FE0
0F80
ENDCHAR
STARTCHAR 014F
ENCODING 335
SWIDTH 550 0
DWIDTH 11 0
BBX 10 15 1 0
BITMAP
2040
30C0
1F00
0000
0000
1E00
7F00
6380
C180
C180
C180
C180
E300
7F00
3C00
ENDCHAR
STARTCHAR 0150
ENCODING 336
SWIDTH 800 0
DWIDTH 16 0
BBX 14 20 1 0
BITMAP
00CC
01DC
03B8
0330
0000
07E0
1FF0
3C38
301C
600C
600C
C00C
C00C
C00C
C018
C018
6030
7070
3FE0
0F80
ENDCHAR
STARTCHAR 0151
ENCODING 337
SWIDTH 550 0
DWIDTH 11 0
BBX 10 16 1 0
BITMAP
0CC0
1DC0
3B80
3300
0000
0000
1E00
7F00
6380
C180
C180
C180
C180
E300
7F00
3C00
ENDCHAR
STARTCHAR 0152
ENCODING 338
SWIDTH 1200 0
DWIDTH 24 0
BBX 23 15 1 0
BITMAP
07EFFE
1FFFFE
3C3C00
301C00
600C00
600C7C
C00FFC
C00F80
C00C00
C01C00
C01C00
603C00
707C00
3FEFFC
0F87FC
ENDCHAR
STARTCHAR 0153
ENCODING 339
SWIDTH 900 0
DWIDTH 18 0
BBX 17 11 1 -1
BITMAP
1E3E00
3F7F00
63C300
E18700
C1BC00
C1F000
C1C000
C18180
63C380
7EFF00
3C3E00
ENDCHAR
STARTCHAR 0154
ENCODING 340
SWIDTH 650 0
DWIDTH 13 0
BBX 11 21 1 0
BITMAP
0C00
1800
1800
3000
0000
0000
F800
FE00
C700
C180
C0C0
C0C0
C0C0
C3C0
FF80
FE00
DE00
C780
C1C0
C0E0
C060
ENDCHAR
STARTCHAR 0155
ENCODING 341
SWIDTH 500 0
DWIDTH 10 0
BBX 8 16 1 0
BITMAP
0C
18
18
30
00
00
CF
DF
F3
E3
C0
C0
C0
C0
C0
C0
ENDCHAR
STARTCHAR 0156
ENCODING 342
SWIDTH 650 0
DWIDTH 13 0
BBX 11 19 1 -4
BITMAP
F800
FE00
C700
C180
C0C0
C0C0
C0C0
C3C0
FF80
FE00
DE00
C780
C1C0
C0E0
F060
1C00
0C00
0C00
7800
ENDCHAR
STARTCHAR 0157
ENCODING 343
SWIDTH 500 0
DWIDTH 10 0
BBX 9 13 0 -3
BITMAP
6780
6F80
7980
7180
6000
6000
6000
6000
6000
7000
1800
1800
F000
ENDCHAR
STARTCHAR 0158
ENCODING 344
SWIDTH 650 0
DWIDTH 13 0
BBX 11 21 1 0
BITMAP
4000
6300
3700
1C00
0800
0000
F800
FE00
C700
C180
C0C0
C0C0
C0C0
C3C0
FF80
FE00
DE00
C780
C1C0
C0E0
C060
ENDCHAR
STARTCHAR 0159
ENCODING 345
SWIDTH 500 0
DWIDTH 10 0
BBX 8 16 1 0
BITMAP
40
63
37
1C
08
00
CF
DF
F3
E3
C0
C0
C0
C0
C0
C0
ENDCHAR
STARTCHAR 015A
ENCODING 346
SWIDTH 700 0
DWIDTH 14 0
BBX 11 21 2 -1
BITMAP
0180
0300
0300
0600
0000
0F80
1FC0
3000
6000
6000
7000
7F00
1FC0
01E0
0060
0060
0060
C0E0
E1C0
7F80
3F00
ENDCHAR
STARTCHAR 015B
ENCODING 347
SWIDTH 500 0
DWIDTH 10 0
BBX 8 16 1 0
BITMAP
06
0C
0C
18
00
00
07
7F
F3
C0
F8
1E
03
C3
FF
7C
ENDCHAR
STARTCHAR 015C
ENCODING 348
SWIDTH 700 0
DWIDTH 14 0
BBX 11 21 2 -1
BITMAP
0600
0F00
1980
30C0
0000
0F80
1FC0
3000
6000
6000
7000
7F00
1FC0
01E0
0060
0060
0060
C0E0
E1C0
7F80
3F00
ENDCHAR
STARTCHAR 015D
ENCODING 349
SWIDTH 500 0
DWIDTH 10 0
BBX 8 16 1 0
BITMAP
18
3C
66
C3
00
00
07
7F
F3
C0
F8
1E
03
C3
FF
7C
ENDCHAR
STARTCHAR 015E
ENCODING 350
SWIDTH 700 0
DWIDTH 14 0
BBX 11 18 2 -3
BITMAP
0F80
1FC0
3000
6000
6000
7800
3F80
07C0
00E0
0060
0060
C060
E1C0
7FC0
3F00
0600
0600
3C00
ENDCHAR
STARTCHAR 015F
ENCODING 351
SWIDTH 500 0
DWIDTH 10 0
BBX 9 13 0 -3
BITMAP
0380
3F80
7980
6000
7C00
0F00
0180
C180
FF80
7F00
0600
0600
3C00
ENDCHAR
STARTCHAR 0160
ENCODING 352
SWIDTH 700 0
DWIDTH 14 0
BBX 11 21 2 -1
BITMAP
0800
0C60
06E0
0380
0100
0F80
1FC0
3000
6000
6000
7000
7F00
1FC0
01E0
0060
0060
0060
C0E0
E1C0
7F80
3F00
ENDCHAR
STARTCHAR 0161
ENCODING 353
SWIDTH 500 0
DWIDTH 10 0
BBX 8 16 1 0
BITMAP
40
63
37
1C
08
00
07
7F
F3
C0
F8
1E
03
C3
FF
7C
ENDCHAR
STARTCHAR 0162
ENCODING 354
SWIDTH 700 0
DWIDTH 14 0
BBX 13 21 1 -6
BITMAP
FFF8
FFF8
0600
0600
0600
0600
0600
0600
0600
0600
0600
0600
0600
0600
0600
0000
0700
0700
0300
0700
0600
ENDCHAR
STARTCHAR 0163
ENCODING 355
SWIDTH 400 0
DWIDTH 8 0
BBX 8 20 0 -6
BITMAP
18
18
18
18
FF
FF
18
18
18
18
18
18
18
18
00
1C
1C
0C
1C
18
ENDCHAR
STARTCHAR 0164
ENCODING 356
SWIDTH 700 0
DWIDTH 14 0
BBX 13 21 1 0
BITMAP
1000
18C0
0DC0
0700
0200
0000
FFF8
FFF8
0600
0600
0600
0600
0600
0600
0600
0600
0600
0600
0600
0600
0600
ENDCHAR
STARTCHAR 0165
ENCODING 357
SWIDTH 650 0
DWIDTH 13 0
BBX 12 14 0 0
BITMAP
1870
1870
1830
1870
FF60
FF00
1800
1800
1800
1800
1800
1800
1800
1800
ENDCHAR
STARTCHAR 0166
ENCODING 358
SWIDTH 700 0
DWIDTH 14 0
BBX 12 15 1 0
BITMAP
FFF0
FFF0
0600
0600
0600
0600
3FC0
3FC0
0600
0600
0600
0600
0600
0600
0600
ENDCHAR
STARTCHAR 0167
ENCODING 359
SWIDTH 450 0
DWIDTH 9 0
BBX 8 13 1 0
BITMAP
18
18
18
FF
FF
18
7E
7E
18
18
18
18
18
ENDCHAR
STARTCHAR 0168
ENCODING 360
SWIDTH 750 0
DWIDTH 15 0
BBX 12 19 2 0
BITMAP
1E60
3FE0
33C0
0000
C030
C030
C030
C030
C030
C030
C030
C030
C030
C060
C060
6060
70C0
3FC0
1F00
ENDCHAR
STARTCHAR 0169
ENCODING 361
SWIDTH 500 0
DWIDTH 10 0
BBX 9 15 1 0
BITMAP
7980
FF80
CF00
0000
0000
C300
C300
C300
C300
C300
C300
C300
C300
FF00
7F00
ENDCHAR
STARTCHAR 016A
ENCODING 362
SWIDTH 750 0
DWIDTH 15 0
BBX 12 17 2 0
BITMAP
1FC0
0000
C030
C030
C030
C030
C030
C030
C030
C030
C030
C060
C060
6060
70C0
3FC0
1F00
ENDCHAR
STARTCHAR 016B
ENCODING 363
SWIDTH 500 0
DWIDTH 10 0
BBX 8 13 1 0
BITMAP
7F
00
00
C3
C3
C3
C3
C3
C3
C3
C3
FF
7F
ENDCHAR
STARTCHAR 016C
ENCODING 364
SWIDTH 750 0
DWIDTH 15 0
BBX 12 19 2 0
BITMAP
2040
30C0
1F00
0000
C030
C030
C030
C030
C030
C030
C030
C030
C030
C060
C060
6060
70C0
3FC0
1F00
ENDCHAR
STARTCHAR 016D
ENCODING 365
SWIDTH 500 0
DWIDTH 10 0
BBX 8 15 1 0
BITMAP
81
C3
7C
00
00
C3
C3
C3
C3
C3
C3
C3
C3
FF
7F
ENDCHAR
STARTCHAR 016E
ENCODING 366
SWIDTH 750 0
DWIDTH 15 0
BBX 12 21 2 0
BITMAP
0F80
1840
1040
18C0
0F80
0000
C030
C030
C030
C030
C030
C030
C030
C030
C030
C060
C060
6060
70C0
3FC0
1F00
ENDCHAR
STARTCHAR 016F
ENCODING 367
SWIDTH 500 0
DWIDTH 10 0
BBX 8 17 1 0
BITMAP
3E
61
41
63
3E
00
00
C3
C3
C3
C3
C3
C3
C3
C3
FF
7F
ENDCHAR
STARTCHAR 0170
ENCODING 368
SWIDTH 750 0
DWIDTH 15 0
BBX 12 20 2 0
BITMAP
0660
0EE0
1DC0
1980
0000
C030
C030
C030
C030
C030
C030
C030
C030
C030
C060
C060
6060
70C0
3FC0
1F00
ENDCHAR
STARTCHAR 0171
ENCODING 369
SWIDTH 500 0
DWIDTH 10 0
BBX 10 16 1 0
BITMAP
0CC0
1DC0
3B80
3300
0000
0000
C300
C300
C300
C300
C300
C300
C300
C300
FF00
7F00
ENDCHAR
STARTCHAR 0172
ENCODING 370
SWIDTH 750 0
DWIDTH 15 0
BBX 12 18 2 -3
BITMAP
C030
C030
C030
C030
C030
C030
C030
C030
C030
C060
C060
6060
70C0
3FC0
1F00
0C00
0800
0780
ENDCHAR
STARTCHAR 0173
ENCODING 371
SWIDTH 500 0
DWIDTH 10 0
BBX 10 13 1 -3
BITMAP
C300
C300
C300
C300
C300
C300
C300
C300
FF00
7F00
0600
0400
03C0
ENDCHAR
STARTCHAR 0174
ENCODING 372
SWIDTH 1000 0
DWIDTH 20 0
BBX 19 20 1 0
BITMAP
006000
00F000
019800
030C00
000000
C06060
C06060
C0E0C0
60E0C0
61A0C0
61B180
21B180
333180
333300
363300
363600
1C3600
1C3600
183C00
181C00
ENDCHAR
STARTCHAR 0175
ENCODING 373
SWIDTH 700 0
DWIDTH 14 0
BBX 12 16 1 0
BITMAP
0600
0F00
1980
30C0
0000
0000
C630
CE30
CE60
CE60
DE60
DEC0
DAC0
72C0
7380
7380
ENDCHAR
STARTCHAR 0176
ENCODING 374
SWIDTH 650 0
DWIDTH 13 0
BBX 12 21 0 -1
BITMAP
0600
0F00
1980
30C0
0000
C030
E030
6060
3060
30C0
18C0
1980
0D80
0780
0700
0300
0600
0600
0C00
0C00
0800
ENDCHAR
STARTCHAR 0177
ENCODING 375
SWIDTH 500 0
DWIDTH 10 0
BBX 10 22 0 -6
BITMAP
0C00
1E00
3300
6180
0000
0000
C0C0
E0C0
6180
7180
3300
3300
1E00
1E00
0C00
0C00
0800
1800
1000
3000
3000
2000
ENDCHAR
STARTCHAR 0178
ENCODING 376
SWIDTH 650 0
DWIDTH 13 0
BBX 12 19 0 -1
BITMAP
18C0
18C0
0000
C030
E030
6060
3060
30C0
18C0
1980
0D80
0780
0700
0300
0600
0600
0C00
0C00
0800
ENDCHAR
STARTCHAR 0179
ENCODING 377
SWIDTH 700 0
DWIDTH 14 0
BBX 13 21 1 0
BITMAP
0300
0600
0600
0C00
0000
0000
FFF8
FFF8
0070
00C0
0180
0300
0600
0E00
0C00
1800
3000
6000
C000
FFF8
FFF8
ENDCHAR
STARTCHAR 017A
ENCODING 378
SWIDTH 550 0
DWIDTH 11 0
BBX 9 16 1 0
BITMAP
0600
0C00
0C00
1800
0000
0000
FF80
FF80
0700
0600
0C00
1C00
3800
7000
FF80
FF80
ENDCHAR
STARTCHAR 017B
ENCODING 379
SWIDTH 700 0
DWIDTH 14 0
BBX 13 18 1 0
BITMAP
0600
0600
0000
FFF8
FFF8
0070
00C0
0180
0300
0600
0E00
0C00
1800
3000
6000
C000
FFF8
FFF8
ENDCHAR
STARTCHAR 017C
ENCODING 380
SWIDTH 550 0
DWIDTH 11 0
BBX 9 14 1 0
BITMAP
1800
1800
0000
0000
FF80
FF80
0700
0600
0C00
1C00
3800
7000
FF80
FF80
ENDCHAR
STARTCHAR 017D
ENCODING 381
SWIDTH 700 0
DWIDTH 14 0
BBX 13 21 1 0
BITMAP
0800
0C60
06E0
0380
0100
0000
FFF8
FFF8
0070
00C0
0180
0300
0600
0E00
0C00
1800
3000
6000
C000
FFF8
FFF8
ENDCHAR
STARTCHAR 017E
ENCODING 382
SWIDTH 550 0
DWIDTH 11 0
BBX 9 16 1 0
BITMAP
4000
6300
3700
1C00
0800
0000
FF80
FF80
0700
0600
0C00
1C00
3800
7000
FF80
FF80
ENDCHAR
STARTCHAR 017F
ENCODING 383
SWIDTH 500 0
DWIDTH 10 0
BBX 6 17 3 -2
BITMAP
3C
7C
E0
C0
C0
C0
C0
C0
C0
C0
C0
C0
C0
C0
C0
C0
C0
ENDCHAR
STARTCHAR 0192
ENCODING 402
SWIDTH 450 0
DWIDTH 9 0
BBX 12 20 -1 -4
BITMAP
00F0
01F0
0380
0300
0700
0700
0600
0600
1FC0
1FC0
0C00
0C00
0C00
0C00
0C00
1C00
1800
3800
F000
E000
ENDCHAR
STARTCHAR 01FA
ENCODING 506
SWIDTH 700 0
DWIDTH 14 0
BBX 12 22 1 0
BITMAP
0060
00E0
00C0
03E0
0610
0410
0630
03E0
0180
0380
0380
06C0
06C0
0CC0
0CC0
1FC0
3FE0
3860
6060
6070
C030
C030
ENDCHAR
STARTCHAR 01FB
ENCODING 507
SWIDTH 500 0
DWIDTH 10 0
BBX 9 21 1 0
BITMAP
0600
0E00
0C00
0000
0000
0000
1F00
3080
2080
3180
1F00
1E00
3F00
7300
E300
C300
C300
C300
E300
7F80
3D80
ENDCHAR
STARTCHAR 01FC
ENCODING 508
SWIDTH 1050 0
DWIDTH 21 0
BBX 21 22 0 -1
BITMAP
0000C0
000180
000180
000300
000000
001FF8
003FF8
007800
00D800
019800
039800
071870
07FFF0
0FFF80
1C1800
181800
301800
701800
601800
C01800
C00FF0
000FF0
ENDCHAR
STARTCHAR 01FD
ENCODING 509
SWIDTH 900 0
DWIDTH 18 0
BBX 17 16 1 0
BITMAP
006000
00C000
00C000
018000
000000
000000
1E3E00
3FFF00
71C300
E19E00
C1F800
C1C000
C18180
E1C380
7FFF00
3DBE00
ENDCHAR
STARTCHAR 01FE
ENCODING 510
SWIDTH 800 0
DWIDTH 16 0
BBX 15 21 1 -1
BITMAP
0180
0300
0300
0600
0000
07E6
0FFE
1C18
303C
606C
60CC
C18C
C38C
C70C
C618
CC18
F838
7070
7FE0
CF80
8000
ENDCHAR
STARTCHAR 01FF
ENCODING 511
SWIDTH 550 0
DWIDTH 11 0
BBX 10 16 1 0
BITMAP
0600
0C00
0C00
1800
0000
0000
1E40
3F80
6380
E780
CD80
C980
D180
E300
7F00
BE00
ENDCHAR
STARTCHAR 02C6
ENCODING 710
SWIDTH 550 0
DWIDTH 11 0
BBX 8 4 2 12
BITMAP
18
3C
66
C3
ENDCHAR
STARTCHAR 02C7
ENCODING 711
SWIDTH 600 0
DWIDTH 12 0
BBX 7 5 3 11
BITMAP
80
C6
6E
38
10
ENDCHAR
STARTCHAR 02C9
ENCODING 713
SWIDTH 600 0
DWIDTH 12 0
BBX 7 1 3 12
BITMAP
FE
ENDCHAR
STARTCHAR 02D8
ENCODING 728
SWIDTH 550 0
DWIDTH 11 0
BBX 8 3 2 12
BITMAP
81
C3
7C
ENDCHAR
STARTCHAR 02D9
ENCODING 729
SWIDTH 550 0
DWIDTH 11 0
BBX 2 2 3 12
BITMAP
C0
C0
ENDCHAR
STARTCHAR 02DA
ENCODING 730
SWIDTH 600 0
DWIDTH 12 0
BBX 7 5 3 12
BITMAP
7C
C2
82
C6
7C
ENDCHAR
STARTCHAR 02DB
ENCODING 731
SWIDTH 550 0
DWIDTH 11 0
BBX 5 4 3 -2
BITMAP
60
C0
80
78
ENDCHAR
STARTCHAR 02DC
ENCODING 732
SWIDTH 500 0
DWIDTH 10 0
BBX 9 3 1 12
BITMAP
7980
FF80
CF00
ENDCHAR
STARTCHAR 02DD
ENCODING 733
SWIDTH 550 0
DWIDTH 11 0
BBX 8 4 2 12
BITMAP
33
77
EE
CC
ENDCHAR
STARTCHAR 037E
ENCODING 894
SWIDTH 300 0
DWIDTH 6 0
BBX 3 12 1 -2
BITMAP
60
60
60
00
00
00
00
00
60
60
C0
C0
ENDCHAR
STARTCHAR 0384
ENCODING 900
SWIDTH 550 0
DWIDTH 11 0
BBX 3 3 4 13
BITMAP
60
E0
C0
ENDCHAR
STARTCHAR 0385
ENCODING 901
SWIDTH 550 0
DWIDTH 11 0
BBX 9 3 1 12
BITMAP
0C00
DD80
D980
ENDCHAR
STARTCHAR 0386
ENCODING 902
SWIDTH 750 0
DWIDTH 15 0
BBX 12 16 1 0
BITMAP
3000
7180
6180
0380
0380
06C0
06C0
0CC0
0CC0
1FC0
3FE0
3860
6060
6070
C030
C030
ENDCHAR
STARTCHAR 0387
ENCODING 903
SWIDTH 250 0
DWIDTH 5 0
BBX 2 2 1 7
BITMAP
C0
C0
ENDCHAR
STARTCHAR 0388
ENCODING 904
SWIDTH 800 0
DWIDTH 16 0
BBX 13 16 1 0
BITMAP
6000
FFF8
DFF8
1800
1800
1800
1800
18F0
1FF0
1F00
1800
1800
1800
1800
1FF0
0FF0
ENDCHAR
STARTCHAR 0389
ENCODING 905
SWIDTH 1000 0
DWIDTH 20 0
BBX 17 16 1 0
BITMAP
600000
EC0180
CC0180
0C0180
0C0180
0C0180
0C0180
0C0180
0C3F80
0FFF80
0FC180
0C0180
0C0180
0C0180
0C0180
0C0180
ENDCHAR
STARTCHAR 038A
ENCODING 906
SWIDTH 750 0
DWIDTH 15 0
BBX 13 16 0 0
BITMAP
6000
E7F8
C7F8
00C0
00C0
00C0
00C0
00C0
00C0
00C0
00C0
00C0
00C0
00C0
07F8
07F8
ENDCHAR
STARTCHAR 038C
ENCODING 908
SWIDTH 900 0
DWIDTH 18 0
BBX 17 16 0 0
BITMAP
600000
E0FC00
C3FE00
078700
060380
0C0180
0C0180
180180
180180
180180
180300
180300
0C0600
0E0E00
07FC00
01F000
ENDCHAR
STARTCHAR 038E
ENCODING 910
SWIDTH 850 0
DWIDTH 17 0
BBX 16 17 0 -1
BITMAP
6000
EC03
CE03
0606
0306
030C
018C
0198
00D8
0078
0070
0030
0060
0060
00C0
00C0
0080
ENDCHAR
STARTCHAR 038F
ENCODING 911
SWIDTH 950 0
DWIDTH 19 0
BBX 18 16 0 0
BITMAP
600000
E07E00
C1FF00
078380
0E0180
0C0180
180180
180180
180180
180380
180300
0C0300
0C0600
060C00
7E1FC0
7C1FC0
ENDCHAR
STARTCHAR 0390
ENCODING 912
SWIDTH 300 0
DWIDTH 6 0
BBX 9 15 -1 0
BITMAP
0C00
DD80
D980
0000
0000
1800
1800
1800
1800
1800
1800
1800
1800
1800
1800
ENDCHAR
STARTCHAR 0391
ENCODING 913
SWIDTH 750 0
DWIDTH 15 0
BBX 12 15 1 0
BITMAP
0180
0180
0380
0380
06C0
06C0
0CC0
0CC0
1FC0
3FE0
3860
6060
6070
C030
C030
ENDCHAR
STARTCHAR 0392
ENCODING 914
SWIDTH 650 0
DWIDTH 13 0
BBX 10 15 2 0
BITMAP
FC00
FF00
C700
C180
C180
C180
C300
FF00
FF00
C380
C0C0
C1C0
C380
FF00
FC00
ENDCHAR
STARTCHAR 0393
ENCODING 915
SWIDTH 600 0
DWIDTH 12 0
BBX 9 15 2 0
BITMAP
FF80
FF80
C000
C000
C000
C000
C000
C000
C000
C000
C000
C000
C000
C000
C000
ENDCHAR
STARTCHAR 0394
ENCODING 916
SWIDTH 800 0
DWIDTH 16 0
BBX 15 16 1 0
BITMAP
0100
0380
0380
06C0
06C0
0E60
0C60
0C30
1830
1818
3818
300C
700C
6006
FFF6
FFFE
ENDCHAR
STARTCHAR 0395
ENCODING 917
SWIDTH 600 0
DWIDTH 12 0
BBX 10 15 1 0
BITMAP
FFC0
FFC0
C000
C000
C000
C000
C780
FF80
F800
C000
C000
C000
C000
FF80
7F80
ENDCHAR
STARTCHAR 0396
ENCODING 918
SWIDTH 700 0
DWIDTH 14 0
BBX 13 15 1 0
BITMAP
FFF8
FFF8
0070
00C0
0180
0300
0600
0E00
0C00
1800
3000
6000
C000
FFF8
FFF8
ENDCHAR
STARTCHAR 0397
ENCODING 919
SWIDTH 750 0
DWIDTH 15 0
BBX 13 15 1 0
BITMAP
C018
C018
C018
C018
C018
C018
C018
C3F8
FFF8
FC18
C018
C018
C018
C018
C018
ENDCHAR
STARTCHAR 0398
ENCODING 920
SWIDTH 800 0
DWIDTH 16 0
BBX 14 15 1 0
BITMAP
07E0
1FF0
3C38
301C
600C
600C
CFCC
CFCC
C00C
C018
C018
6030
7070
3FE0
0F80
ENDCHAR
STARTCHAR 0399
ENCODING 921
SWIDTH 550 0
DWIDTH 11 0
BBX 8 15 1 0
BITMAP
FF
FF
18
18
18
18
18
18
18
18
18
18
18
FF
FF
ENDCHAR
STARTCHAR 039A
ENCODING 922
SWIDTH 600 0
DWIDTH 12 0
BBX 10 15 1 0
BITMAP
C180
C380
C700
C600
CE00
DC00
F800
F000
F000
F800
DC00
CE00
C700
C3C0
C0C0
ENDCHAR
STARTCHAR 039B
ENCODING 923
SWIDTH 700 0
DWIDTH 14 0
BBX 13 15 1 0
BITMAP
0300
0300
0380
0780
0780
0FC0
0CC0
1CE0
1860
3860
3070
7030
6030
E018
C018
ENDCHAR
STARTCHAR 039C
ENCODING 924
SWIDTH 900 0
DWIDTH 18 0
BBX 16 16 1 -1
BITMAP
0C10
1C18
1C38
1C38
1C38
1428
366C
366C
364C
26C4
66C6
67C6
E386
E383
C383
C303
ENDCHAR
STARTCHAR 039D
ENCODING 925
SWIDTH 800 0
DWIDTH 16 0
BBX 14 15 2 0
BITMAP
C008
E00C
F00C
F00C
D80C
DC0C
CE0C
C70C
C38C
C18C
C0CC
C06C
C03C
C01C
C00C
ENDCHAR
STARTCHAR 039E
ENCODING 926
SWIDTH 700 0
DWIDTH 14 0
BBX 12 15 1 0
BITMAP
FFE0
FFE0
0000
0000
0000
0000
7F80
7F80
0000
0000
0000
0000
0000
FFF0
FFF0
ENDCHAR
STARTCHAR 039F
ENCODING 927
SWIDTH 800 0
DWIDTH 16 0
BBX 14 15 1 0
BITMAP
07E0
1FF0
3C38
301C
600C
600C
C00C
C00C
C00C
C018
C018
6030
7070
3FE0
0F80
ENDCHAR
STARTCHAR 03A0
ENCODING 928
SWIDTH 900 0
DWIDTH 18 0
BBX 15 15 2 0
BITMAP
FFFE
FFFE
3018
3018
3018
3018
3018
3018
3018
3018
3018
3018
3018
3018
3018
ENDCHAR
STARTCHAR 03A1
ENCODING 929
SWIDTH 500 0
DWIDTH 10 0
BBX 8 15 1 0
BITMAP
F8
FE
C7
C3
C3
C3
C6
FE
F8
C0
C0
C0
C0
C0
C0
ENDCHAR
STARTCHAR 03A3
ENCODING 931
SWIDTH 750 0
DWIDTH 15 0
BBX 13 15 1 0
BITMAP
FFF0
FFF0
7000
3800
1C00
0E00
0700
0700
0E00
0C00
1800
3000
6000
FFF8
FFF8
ENDCHAR
STARTCHAR 03A4
ENCODING 932
SWIDTH 700 0
DWIDTH 14 0
BBX 13 15 1 0
BITMAP
FFF8
FFF8
0600
0600
0600
0600
0600
0600
0600
0600
0600
0600
0600
0600
0600
ENDCHAR
STARTCHAR 03A5
ENCODING 933
SWIDTH 650 0
DWIDTH 13 0
BBX 12 16 0 -1
BITMAP
C030
E030
6060
3060
30C0
18C0
1980
0D80
0780
0700
0300
0600
0600
0C00
0C00
0800
ENDCHAR
STARTCHAR 03A6
ENCODING 934
SWIDTH 650 0
DWIDTH 13 0
BBX 12 15 1 0
BITMAP
3FC0
3FC0
0600
1F80
3FE0
7670
E630
C630
C630
E6E0
7FC0
3F80
0600
1FC0
1FC0
ENDCHAR
STARTCHAR 03A7
ENCODING 935
SWIDTH 700 0
DWIDTH 14 0
BBX 13 15 1 0
BITMAP
6018
7038
3030
1860
1CC0
0FC0
0780
0700
0780
0DC0
1CC0
3860
7070
E038
C018
ENDCHAR
STARTCHAR 03A8
ENCODING 936
SWIDTH 650 0
DWIDTH 13 0
BBX 12 15 1 0
BITMAP
C630
C630
C630
C630
C630
C660
C660
66E0
7FC0
1F00
0600
0600
0600
0600
0600
ENDCHAR
STARTCHAR 03A9
ENCODING 937
SWIDTH 950 0
DWIDTH 19 0
BBX 17 15 1 0
BITMAP
00FC00
03FE00
0F0700
1C0300
180300
300300
300300
300300
300700
300600
180600
180C00
0C1800
FC3F80
F83F80
ENDCHAR
STARTCHAR 03AA
ENCODING 938
SWIDTH 550 0
DWIDTH 11 0
BBX 8 19 1 0
BITMAP
63
63
00
00
FF
FF
18
18
18
18
18
18
18
18
18
18
18
FF
FF
ENDCHAR
STARTCHAR 03AB
ENCODING 939
SWIDTH 650 0
DWIDTH 13 0
BBX 12 19 0 -1
BITMAP
18C0
18C0
0000
C030
E030
6060
3060
30C0
18C0
1980
0D80
0780
0700
0300
0600
0600
0C00
0C00
0800
ENDCHAR
STARTCHAR 03AC
ENCODING 940
SWIDTH 550 0
DWIDTH 11 0
BBX 9 16 1 0
BITMAP
0600
0E00
0C00
0000
0000
0000
1F80
3F80
7300
E300
C300
C300
C300
E300
7F80
3D80
ENDCHAR
STARTCHAR 03AD
ENCODING 941
SWIDTH 500 0
DWIDTH 10 0
BBX 7 17 2 -1
BITMAP
18
38
30
00
00
00
3C
7E
C6
C0
60
70
C0
C0
C6
FE
3C
ENDCHAR
STARTCHAR 03AE
ENCODING 942
SWIDTH 500 0
DWIDTH 10 0
BBX 7 19 2 -3
BITMAP
0C
1C
18
00
00
00
DC
FE
F6
E6
C6
C6
C6
C6
C6
C6
06
06
06
ENDCHAR
STARTCHAR 03AF
ENCODING 943
SWIDTH 300 0
DWIDTH 6 0
BBX 3 16 2 0
BITMAP
60
E0
C0
00
00
00
C0
C0
C0
C0
C0
C0
C0
C0
C0
C0
ENDCHAR
STARTCHAR 03B0
ENCODING 944
SWIDTH 500 0
DWIDTH 10 0
BBX 9 15 1 0
BITMAP
0C00
DD80
D980
0000
0000
C300
C300
C300
C300
C300
C300
C300
E600
7E00
3C00
ENDCHAR
STARTCHAR 03B1
ENCODING 945
SWIDTH 550 0
DWIDTH 11 0
BBX 9 10 1 0
BITMAP
1F80
3F80
7300
E300
C300
C300
C300
E300
7F80
3D80
ENDCHAR
STARTCHAR 03B2
ENCODING 946
SWIDTH 600 0
DWIDTH 12 0
BBX 10 17 1 -3
BITMAP
3C00
7E00
C600
C400
CE00
CF80
C180
C0C0
C0C0
C0C0
C0C0
E1C0
FF80
FE00
C000
C000
C000
ENDCHAR
STARTCHAR 03B3
ENCODING 947
SWIDTH 500 0
DWIDTH 10 0
BBX 9 13 1 -3
BITMAP
C180
C180
6300
6300
6600
3600
3C00
3C00
1800
1800
1800
1800
1800
ENDCHAR
STARTCHAR 03B4
ENCODING 948
SWIDTH 550 0
DWIDTH 11 0
BBX 9 15 1 0
BITMAP
7F80
7F80
3C00
1C00
0E00
1F00
7F00
6380
C180
C180
C180
C180
E300
7F00
3C00
ENDCHAR
STARTCHAR 03B5
ENCODING 949
SWIDTH 500 0
DWIDTH 10 0
BBX 7 11 2 -1
BITMAP
3C
7E
C6
C0
60
70
C0
C0
C6
FE
3C
ENDCHAR
STARTCHAR 03B6
ENCODING 950
SWIDTH 500 0
DWIDTH 10 0
BBX 9 19 1 -4
BITMAP
FF80
FF80
0600
0C00
1800
3000
7000
6000
E000
C000
C000
C000
E000
7800
1E00
0300
0300
1F00
1E00
ENDCHAR
STARTCHAR 03B7
ENCODING 951
SWIDTH 500 0
DWIDTH 10 0
BBX 7 13 2 -3
BITMAP
DC
FE
F6
E6
C6
C6
C6
C6
C6
C6
06
06
06
ENDCHAR
STARTCHAR 03B8
ENCODING 952
SWIDTH 600 0
DWIDTH 12 0
BBX 10 15 1 0
BITMAP
1E00
3F00
7180
60C0
C0C0
C0C0
FFC0
FFC0
C0C0
C0C0
C0C0
6180
7380
3F00
1E00
ENDCHAR
STARTCHAR 03B9
ENCODING 953
SWIDTH 300 0
DWIDTH 6 0
BBX 2 10 2 0
BITMAP
C0
C0
C0
C0
C0
C0
C0
C0
C0
C0
ENDCHAR
STARTCHAR 03BA
ENCODING 954
SWIDTH 550 0
DWIDTH 11 0
BBX 8 10 2 0
BITMAP
C6
CE
DC
F8
F8
EC
CE
C6
C3
C3
ENDCHAR
STARTCHAR 03BB
ENCODING 955
SWIDTH 500 0
DWIDTH 10 0
BBX 10 13 0 0
BITMAP
0C00
0C00
0C00
0C00
0C00
1E00
1E00
3300
3300
6180
6180
C0C0
C0C0
ENDCHAR
STARTCHAR 03BC
ENCODING 956
SWIDTH 500 0
DWIDTH 10 0
BBX 8 13 1 -3
BITMAP
C3
C3
C3
C3
C3
C3
C3
C3
FF
FB
C0
C0
C0
ENDCHAR
STARTCHAR 03BD
ENCODING 957
SWIDTH 500 0
DWIDTH 10 0
BBX 8 10 1 0
BITMAP
C3
C3
C3
66
66
64
2C
3C
38
18
ENDCHAR
STARTCHAR 03BE
ENCODING 958
SWIDTH 500 0
DWIDTH 10 0
BBX 8 19 1 -4
BITMAP
0F
3F
70
60
60
7E
1E
30
60
C0
C0
C0
E0
F8
7E
1F
03
1F
1E
ENDCHAR
STARTCHAR 03BF
ENCODING 959
SWIDTH 550 0
DWIDTH 11 0
BBX 9 10 1 0
BITMAP
1E00
7F00
6380
C180
C180
C180
C180
E300
7F00
3C00
ENDCHAR
STARTCHAR 03C0
ENCODING 960
SWIDTH 650 0
DWIDTH 13 0
BBX 12 10 0 0
BITMAP
7FF0
FFF0
D8C0
18C0
18C0
18C0
18C0
18C0
18E0
1860
ENDCHAR
STARTCHAR 03C1
ENCODING 961
SWIDTH 550 0
DWIDTH 11 0
BBX 9 14 1 -4
BITMAP
1E00
3F00
6380
C180
C180
C180
C180
E300
FF00
DE00
C000
C000
C000
C000
ENDCHAR
STARTCHAR 03C2
ENCODING 962
SWIDTH 500 0
DWIDTH 10 0
BBX 8 14 1 -4
BITMAP
1E
3F
73
60
C0
C0
C0
F0
7E
1F
03
03
1F
1C
ENDCHAR
STARTCHAR 03C3
ENCODING 963
SWIDTH 550 0
DWIDTH 11 0
BBX 10 10 1 0
BITMAP
1FC0
7FC0
6300
C180
C180
C180
C180
E300
7F00
3E00
ENDCHAR
STARTCHAR 03C4
ENCODING 964
SWIDTH 450 0
DWIDTH 9 0
BBX 8 10 0 0
BITMAP
FF
FF
18
18
18
18
18
18
18
18
ENDCHAR
STARTCHAR 03C5
ENCODING 965
SWIDTH 500 0
DWIDTH 10 0
BBX 8 10 1 0
BITMAP
C3
C3
C3
C3
C3
C3
C3
E6
7E
3C
ENDCHAR
STARTCHAR 03C6
ENCODING 966
SWIDTH 600 0
DWIDTH 12 0
BBX 10 14 1 -4
BITMAP
6700
6F80
CD80
CCC0
CCC0
CCC0
CCC0
EDC0
7F80
3F00
0C00
0C00
0C00
0C00
ENDCHAR
STARTCHAR 03C7
ENCODING 967
SWIDTH 600 0
DWIDTH 12 0
BBX 11 13 0 -3
BITMAP
6060
7060
30C0
1980
1F80
0F00
0E00
1F00
1B80
3180
70C0
E0E0
C060
ENDCHAR
STARTCHAR 03C8
ENCODING 968
SWIDTH 600 0
DWIDTH 12 0
BBX 10 14 1 -4
BITMAP
CCC0
CCC0
CCC0
CCC0
CCC0
CCC0
CD80
6D80
7F00
1E00
0C00
0C00
0C00
0C00
ENDCHAR
STARTCHAR 03C9
ENCODING 969
SWIDTH 750 0
DWIDTH 15 0
BBX 13 10 1 0
BITMAP
6018
6318
C318
C318
C318
C318
C318
6730
7DF0
3DE0
ENDCHAR
STARTCHAR 03CA
ENCODING 970
SWIDTH 300 0
DWIDTH 6 0
BBX 7 14 -1 0
BITMAP
C6
C6
00
00
18
18
18
18
18
18
18
18
18
18
ENDCHAR
STARTCHAR 03CB
ENCODING 971
SWIDTH 500 0
DWIDTH 10 0
BBX 8 14 1 0
BITMAP
63
63
00
00
C3
C3
C3
C3
C3
C3
C3
E6
7E
3C
ENDCHAR
STARTCHAR 03CC
ENCODING 972
SWIDTH 550 0
DWIDTH 11 0
BBX 9 16 1 0
BITMAP
0600
0E00
0C00
0000
0000
0000
1E00
7F00
6380
C180
C180
C180
C180
E300
7F00
3C00
ENDCHAR
STARTCHAR 03CD
ENCODING 973
SWIDTH 500 0
DWIDTH 10 0
BBX 8 16 1 0
BITMAP
0C
1C
18
00
00
00
C3
C3
C3
C3
C3
C3
C3
E6
7E
3C
ENDCHAR
STARTCHAR 03CE
ENCODING 974
SWIDTH 750 0
DWIDTH 15 0
BBX 13 16 1 0
BITMAP
0180
0380
0300
0000
0000
0000
6018
6318
C318
C318
C318
C318
C318
6730
7DF0
3DE0
ENDCHAR
STARTCHAR 0401
ENCODING 1025
SWIDTH 600 0
DWIDTH 12 0
BBX 10 20 1 0
BITMAP
18C0
18C0
0000
0000
0000
FFC0
FFC0
C000
C000
C000
C000
C780
FF80
F800
C000
C000
C000
C000
FF80
7F80
ENDCHAR
STARTCHAR 0402
ENCODING 1026
SWIDTH 850 0
DWIDTH 17 0
BBX 16 18 0 -3
BITMAP
FFF8
FFF8
0600
0600
06F8
07FE
070E
0607
0603
0603
0603
0603
0603
0606
0606
000C
003C
0038
ENDCHAR
STARTCHAR 0403
ENCODING 1027
SWIDTH 600 0
DWIDTH 12 0
BBX 9 20 2 0
BITMAP
0600
0C00
0C00
1800
0000
FF80
FF80
C000
C000
C000
C000
C000
C000
C000
C000
C000
C000
C000
C000
C000
ENDCHAR
STARTCHAR 0404
ENCODING 1028
SWIDTH 600 0
DWIDTH 12 0
BBX 11 15 1 0
BITMAP
07E0
1FE0
3C60
3020
6000
4000
CF00
FF00
F800
C000
C000
C0C0
61C0
7F80
1E00
ENDCHAR
STARTCHAR 0405
ENCODING 1029
SWIDTH 700 0
DWIDTH 14 0
BBX 11 16 2 -1
BITMAP
0F80
1FC0
3000
6000
6000
7000
7F00
1FC0
01E0
0060
0060
0060
C0E0
E1C0
7F80
3F00
ENDCHAR
STARTCHAR 0406
ENCODING 1030
SWIDTH 550 0
DWIDTH 11 0
BBX 8 15 1 0
BITMAP
FF
FF
18
18
18
18
18
18
18
18
18
18
18
FF
FF
ENDCHAR
STARTCHAR 0407
ENCODING 1031
SWIDTH 550 0
DWIDTH 11 0
BBX 8 19 1 0
BITMAP
63
63
00
00
FF
FF
18
18
18
18
18
18
18
18
18
18
18
FF
FF
ENDCHAR
STARTCHAR 0408
ENCODING 1032
SWIDTH 650 0
DWIDTH 13 0
BBX 11 15 1 0
BITMAP
3FE0
3FE0
0300
0300
0300
0300
0300
0300
0300
C300
C300
C300
6700
3F00
1E00
ENDCHAR
STARTCHAR 0409
ENCODING 1033
SWIDTH 1000 0
DWIDTH 20 0
BBX 19 15 0 0
BITMAP
1FF000
1FF000
183000
183000
183000
183000
183F80
183FC0
1830E0
183060
183060
183060
3830E0
F03FC0
E03F80
ENDCHAR
STARTCHAR 040A
ENCODING 1034
SWIDTH 1000 0
DWIDTH 20 0
BBX 18 15 1 0
BITMAP
C06000
C06000
C06000
C06000
C06000
C06000
FFFE00
FFFF80
C061C0
C060C0
C060C0
C060C0
C061C0
C07F80
C07F00
ENDCHAR
STARTCHAR 040B
ENCODING 1035
SWIDTH 850 0
DWIDTH 17 0
BBX 15 15 1 0
BITMAP
FFF8
FFF8
0600
0600
06F8
07FC
070C
0606
0606
0606
0606
0606
0606
0606
0606
ENDCHAR
STARTCHAR 040C
ENCODING 1036
SWIDTH 650 0
DWIDTH 13 0
BBX 10 20 2 0
BITMAP
0C00
1800
1800
3000
0000
C0C0
C1C0
C300
C200
C600
CC00
F800
F800
CC00
C600
C300
C180
C180
C0C0
C0C0
ENDCHAR
STARTCHAR 040E
ENCODING 1038
SWIDTH 650 0
DWIDTH 13 0
BBX 12 19 0 0
BITMAP
1020
1860
0F80
0000
C030
E030
6060
7060
38C0
18C0
1DC0
0D80
0780
0700
0700
0600
0E00
7C00
7800
ENDCHAR
STARTCHAR 040F
ENCODING 1039
SWIDTH 750 0
DWIDTH 15 0
BBX 13 18 1 -3
BITMAP
C008
C018
C018
C018
C018
C018
C018
C018
C018
C018
C018
C018
C018
FFF8
FFF8
0600
0600
0600
ENDCHAR
STARTCHAR 0410
ENCODING 1040
SWIDTH 700 0
DWIDTH 14 0
BBX 12 15 1 0
BITMAP
0180
0180
0380
0380
06C0
06C0
0CC0
0CC0
1FC0
3FE0
3860
6060
6070
C030
C030
ENDCHAR
STARTCHAR 0411
ENCODING 1041
SWIDTH 600 0
DWIDTH 12 0
BBX 9 15 2 0
BITMAP
FF80
FF80
C000
C000
C000
C000
FE00
FF00
C380
C180
C180
C180
C380
FF00
FE00
ENDCHAR
STARTCHAR 0412
ENCODING 1042
SWIDTH 650 0
DWIDTH 13 0
BBX 10 15 2 0
BITMAP
FC00
FF00
C700
C180
C180
C180
C300
FF00
FF00
C380
C0C0
C1C0
C380
FF00
FC00
ENDCHAR
STARTCHAR 0413
ENCODING 1043
SWIDTH 600 0
DWIDTH 12 0
BBX 9 15 2 0
BITMAP
FF80
FF80
C000
C000
C000
C000
C000
C000
C000
C000
C000
C000
C000
C000
C000
ENDCHAR
STARTCHAR 0414
ENCODING 1044
SWIDTH 750 0
DWIDTH 15 0
BBX 12 18 1 -3
BITMAP
3FF0
3FF0
3030
3030
3030
3030
3030
3030
3030
3030
6030
6030
6030
FFF0
FFF0
C030
C030
C030
ENDCHAR
STARTCHAR 0415
ENCODING 1045
SWIDTH 600 0
DWIDTH 12 0
BBX 10 15 1 0
BITMAP
FFC0
FFC0
C000
C000
C000
C000
C780
FF80
F800
C000
C000
C000
C000
FF80
7F80
ENDCHAR
STARTCHAR 0416
ENCODING 1046
SWIDTH 850 0
DWIDTH 17 0
BBX 16 15 0 0
BITMAP
E187
E187
318C
3188
1998
0990
0FF0
0FF0
1DB8
399C
318C
6186
E187
C183
C183
ENDCHAR
STARTCHAR 0417
ENCODING 1047
SWIDTH 600 0
DWIDTH 12 0
BBX 10 15 1 0
BITMAP
1F00
7F80
61C0
00C0
00C0
01C0
0F80
0F80
01C0
00C0
00C0
00C0
C1C0
FF80
3E00
ENDCHAR
STARTCHAR 0418
ENCODING 1048
SWIDTH 750 0
DWIDTH 15 0
BBX 11 15 2 0
BITMAP
C060
C0E0
C0E0
C1E0
C3E0
C760
CE60
CC60
DC60
F860
F060
F060
E060
C060
C060
ENDCHAR
STARTCHAR 0419
ENCODING 1049
SWIDTH 750 0
DWIDTH 15 0
BBX 11 19 2 0
BITMAP
2040
30C0
1F00
0000
C060
C0E0
C0E0
C1E0
C3E0
C760
CE60
CC60
DC60
F860
F060
F060
E060
C060
C060
ENDCHAR
STARTCHAR 041A
ENCODING 1050
SWIDTH 650 0
DWIDTH 13 0
BBX 10 15 2 0
BITMAP
C0C0
C1C0
C300
C200
C600
CC00
F800
F800
CC00
C600
C300
C180
C180
C0C0
C0C0
ENDCHAR
STARTCHAR 041B
ENCODING 1051
SWIDTH 750 0
DWIDTH 15 0
BBX 13 15 0 0
BITMAP
1FF8
1FF8
1818
1818
1818
1818
1818
1818
1818
1818
1818
1818
3818
F018
E018
ENDCHAR
STARTCHAR 041C
ENCODING 1052
SWIDTH 900 0
DWIDTH 18 0
BBX 16 16 1 -1
BITMAP
0C10
1C18
1C38
1C38
1C38
1428
366C
366C
364C
26C4
66C6
67C6
E386
E383
C383
C303
ENDCHAR
STARTCHAR 041D
ENCODING 1053
SWIDTH 750 0
DWIDTH 15 0
BBX 13 15 1 0
BITMAP
C018
C018
C018
C018
C018
C018
C018
C3F8
FFF8
FC18
C018
C018
C018
C018
C018
ENDCHAR
STARTCHAR 041E
ENCODING 1054
SWIDTH 800 0
DWIDTH 16 0
BBX 14 15 1 0
BITMAP
07E0
1FF0
3C38
301C
600C
600C
C00C
C00C
C00C
C018
C018
6030
7070
3FE0
0F80
ENDCHAR
STARTCHAR 041F
ENCODING 1055
SWIDTH 900 0
DWIDTH 18 0
BBX 15 15 2 0
BITMAP
FFFE
FFFE
3018
3018
3018
3018
3018
3018
3018
3018
3018
3018
3018
3018
3018
ENDCHAR
STARTCHAR 0420
ENCODING 1056
SWIDTH 500 0
DWIDTH 10 0
BBX 8 15 1 0
BITMAP
F8
FE
C7
C3
C3
C3
C6
FE
F8
C0
C0
C0
C0
C0
C0
ENDCHAR
STARTCHAR 0421
ENCODING 1057
SWIDTH 600 0
DWIDTH 12 0
BBX 11 15 0 0
BITMAP
03E0
0FE0
1C60
3860
3000
6000
6000
C000
C000
C000
C000
C0C0
61C0
7F80
1E00
ENDCHAR
STARTCHAR 0422
ENCODING 1058
SWIDTH 700 0
DWIDTH 14 0
BBX 13 15 1 0
BITMAP
FFF8
FFF8
0600
0600
0600
0600
0600
0600
0600
0600
0600
0600
0600
0600
0600
ENDCHAR
STARTCHAR 0423
ENCODING 1059
SWIDTH 650 0
DWIDTH 13 0
BBX 12 15 0 0
BITMAP
C030
E030
6060
7060
38C0
18C0
1DC0
0D80
0780
0700
0700
0600
0E00
7C00
7800
ENDCHAR
STARTCHAR 0424
ENCODING 1060
SWIDTH 650 0
DWIDTH 13 0
BBX 12 15 1 0
BITMAP
3FC0
3FC0
0600
1F80
3FE0
7670
E630
C630
C630
E6E0
7FC0
3F80
0600
1FC0
1FC0
ENDCHAR
STARTCHAR 0425
ENCODING 1061
SWIDTH 700 0
DWIDTH 14 0
BBX 13 15 1 0
BITMAP
6018
7038
3030
1860
1CC0
0FC0
0780
0700
0780
0DC0
1CC0
3860
7070
E038
C018
ENDCHAR
STARTCHAR 0426
ENCODING 1062
SWIDTH 750 0
DWIDTH 15 0
BBX 14 18 1 -3
BITMAP
C030
C030
C030
C030
C030
C030
C030
C030
C030
C030
C030
C030
C030
FFFC
FFFC
000C
000C
000C
ENDCHAR
STARTCHAR 0427
ENCODING 1063
SWIDTH 600 0
DWIDTH 12 0
BBX 10 15 1 0
BITMAP
C0C0
C0C0
C0C0
C0C0
C0C0
C0C0
C0C0
E0C0
7FC0
1FC0
00C0
00C0
00C0
00C0
00C0
ENDCHAR
STARTCHAR 0428
ENCODING 1064
SWIDTH 900 0
DWIDTH 18 0
BBX 16 15 1 0
BITMAP
C183
C183
C183
C183
C183
C183
C183
C183
C183
C183
C183
C183
C183
FFFF
FFFF
ENDCHAR
STARTCHAR 0429
ENCODING 1065
SWIDTH 950 0
DWIDTH 19 0
BBX 18 18 0 -3
BITMAP
C18300
C18300
C18300
C18300
C18300
C18300
C18300
C18300
C18300
C18300
C18300
C18300
C18300
FFFF80
FFFFC0
0000C0
0000C0
0000C0
ENDCHAR
STARTCHAR 042A
ENCODING 1066
SWIDTH 750 0
DWIDTH 15 0
BBX 14 15 0 0
BITMAP
FE00
FE00
0600
0600
0600
0600
07F0
07F8
061C
060C
060C
060C
061C
07F8
07F0
ENDCHAR
STARTCHAR 042B
ENCODING 1067
SWIDTH 1100 0
DWIDTH 22 0
BBX 17 15 2 0
BITMAP
C07F80
C07F80
C00C00
C00C00
C00C00
C00C00
FE0C00
FF0C00
C38C00
C18C00
C18C00
C18C00
C38C00
FF7F80
FE7F80
ENDCHAR
STARTCHAR 042C
ENCODING 1068
SWIDTH 600 0
DWIDTH 12 0
BBX 9 15 2 0
BITMAP
C000
C000
C000
C000
C000
C000
FE00
FF00
C380
C180
C180
C180
C380
FF00
FE00
ENDCHAR
STARTCHAR 042D
ENCODING 1069
SWIDTH 650 0
DWIDTH 13 0
BBX 11 15 1 0
BITMAP
7E00
FF00
C380
01C0
00C0
0060
0060
1FE0
1FE0
0060
0060
00C0
C180
FF80
3E00
ENDCHAR
STARTCHAR 042E
ENCODING 1070
SWIDTH 1150 0
DWIDTH 23 0
BBX 21 15 1 0
BITMAP
C00FC0
C03FE0
C07870
C0E038
C0C018
C1C018
C18018
FF8018
FF8018
C18030
C18030
C0C060
C0E0E0
C07FC0
C01F00
ENDCHAR
STARTCHAR 042F
ENCODING 1071
SWIDTH 650 0
DWIDTH 13 0
BBX 12 15 0 0
BITMAP
03F0
0FF0
1C30
3830
6030
6030
6030
3830
1FF0
03F0
0F30
3C30
7830
E030
C030
ENDCHAR
STARTCHAR 0430
ENCODING 1072
SWIDTH 500 0
DWIDTH 10 0
BBX 9 10 1 0
BITMAP
1E00
3F00
7300
E300
C300
C300
C300
E300
7F80
3D80
ENDCHAR
STARTCHAR 0431
ENCODING 1073
SWIDTH 550 0
DWIDTH 11 0
BBX 10 15 1 0
BITMAP
00C0
0FC0
1F80
3800
7000
6E00
FF00
E380
C180
C180
C180
C180
6300
7F00
3E00
ENDCHAR
STARTCHAR 0432
ENCODING 1074
SWIDTH 500 0
DWIDTH 10 0
BBX 8 10 1 0
BITMAP
F8
FC
C6
C6
FE
FE
C7
C3
FE
FC
ENDCHAR
STARTCHAR 0433
ENCODING 1075
SWIDTH 450 0
DWIDTH 9 0
BBX 6 10 2 0
BITMAP
FC
FC
C0
C0
C0
C0
C0
C0
C0
C0
ENDCHAR
STARTCHAR 0434
ENCODING 1076
SWIDTH 600 0
DWIDTH 12 0
BBX 11 12 0 -2
BITMAP
1FC0
1FC0
18C0
18C0
18C0
30C0
30C0
60C0
FFE0
FFE0
C060
C060
ENDCHAR
STARTCHAR 0435
ENCODING 1077
SWIDTH 550 0
DWIDTH 11 0
BBX 9 10 1 0
BITMAP
1F00
3F80
6180
C700
FE00
F800
E080
E180
7F00
3E00
ENDCHAR
STARTCHAR 0436
ENCODING 1078
SWIDTH 700 0
DWIDTH 14 0
BBX 12 10 1 0
BITMAP
C630
6660
36C0
3FC0
3F80
36C0
6660
E660
C630
C630
ENDCHAR
STARTCHAR 0437
ENCODING 1079
SWIDTH 450 0
DWIDTH 9 0
BBX 7 10 1 0
BITMAP
7C
FE
C6
06
3C
0E
06
C6
FE
7C
ENDCHAR
STARTCHAR 0438
ENCODING 1080
SWIDTH 650 0
DWIDTH 13 0
BBX 10 10 1 0
BITMAP
C0C0
C1C0
C3C0
C7C0
C6C0
CEC0
DCC0
F8C0
E0C0
C0C0
ENDCHAR
STARTCHAR 0439
ENCODING 1081
SWIDTH 650 0
DWIDTH 13 0
BBX 10 15 1 0
BITMAP
2040
30C0
1F00
0000
0000
C0C0
C1C0
C3C0
C7C0
C6C0
CEC0
DCC0
F8C0
E0C0
C0C0
ENDCHAR
STARTCHAR 043A
ENCODING 1082
SWIDTH 500 0
DWIDTH 10 0
BBX 9 10 1 0
BITMAP
C180
C300
C600
FC00
FC00
CE00
C700
C300
C380
C180
ENDCHAR
STARTCHAR 043B
ENCODING 1083
SWIDTH 650 0
DWIDTH 13 0
BBX 11 10 0 0
BITMAP
1FE0
1FE0
1860
1860
1860
1860
1860
1860
F860
F060
ENDCHAR
STARTCHAR 043C
ENCODING 1084
SWIDTH 750 0
DWIDTH 15 0
BBX 13 10 1 0
BITMAP
3040
30E0
78E0
78E0
79A0
49B0
CD30
CF10
C618
8618
ENDCHAR
STARTCHAR 043D
ENCODING 1085
SWIDTH 550 0
DWIDTH 11 0
BBX 9 10 1 0
BITMAP
C180
C180
C180
C180
FF80
FF80
C180
C180
C180
C180
ENDCHAR
STARTCHAR 043E
ENCODING 1086
SWIDTH 600 0
DWIDTH 12 0
BBX 10 10 1 0
BITMAP
1F00
3F80
71C0
E0C0
C0C0
C0C0
C1C0
E380
7F00
3E00
ENDCHAR
STARTCHAR 043F
ENCODING 1087
SWIDTH 650 0
DWIDTH 13 0
BBX 9 10 2 0
BITMAP
FF80
FF80
C180
C180
C180
C180
C180
C180
C180
C180
ENDCHAR
STARTCHAR 0440
ENCODING 1088
SWIDTH 550 0
DWIDTH 11 0
BBX 8 17 2 -6
BITMAP
C0
DC
FE
E7
C3
C3
C3
C3
C7
FE
FC
C0
C0
C0
C0
C0
C0
ENDCHAR
STARTCHAR 0441
ENCODING 1089
SWIDTH 500 0
DWIDTH 10 0
BBX 8 10 1 0
BITMAP
1E
3F
73
60
C0
C0
C0
E3
7F
3C
ENDCHAR
STARTCHAR 0442
ENCODING 1090
SWIDTH 450 0
DWIDTH 9 0
BBX 8 10 0 0
BITMAP
FF
FF
18
18
18
18
18
18
18
18
ENDCHAR
STARTCHAR 0443
ENCODING 1091
SWIDTH 500 0
DWIDTH 10 0
BBX 10 16 0 -6
BITMAP
C0C0
E0C0
6180
7180
3300
3300
1E00
1E00
0C00
0C00
0800
1800
1000
3000
3000
2000
ENDCHAR
STARTCHAR 0444
ENCODING 1092
SWIDTH 800 0
DWIDTH 16 0
BBX 14 17 1 -6
BITMAP
0300
3B70
7FF8
679C
C30C
C30C
C30C
C30C
E31C
7FF8
3FF0
0300
0300
0300
0300
0300
0300
ENDCHAR
STARTCHAR 0445
ENCODING 1093
SWIDTH 600 0
DWIDTH 12 0
BBX 11 10 1 0
BITMAP
6060
70E0
39C0
1B80
0F00
1F00
3B80
71C0
E0E0
C060
ENDCHAR
STARTCHAR 0446
ENCODING 1094
SWIDTH 600 0
DWIDTH 12 0
BBX 9 12 2 -2
BITMAP
C300
C300
C300
C300
C300
C300
C300
C300
FF80
FF80
0180
0180
ENDCHAR
STARTCHAR 0447
ENCODING 1095
SWIDTH 550 0
DWIDTH 11 0
BBX 9 10 1 0
BITMAP
C180
C180
C180
C180
E380
7F80
3D80
0180
0180
0180
ENDCHAR
STARTCHAR 0448
ENCODING 1096
SWIDTH 750 0
DWIDTH 15 0
BBX 13 10 1 0
BITMAP
C318
C318
C318
C318
C318
C318
C318
C318
FFF8
FFF8
ENDCHAR
STARTCHAR 0449
ENCODING 1097
SWIDTH 800 0
DWIDTH 16 0
BBX 14 13 1 -3
BITMAP
C630
C630
C630
C630
C630
C630
C630
C630
FFFC
FFFC
000C
000C
000C
ENDCHAR
STARTCHAR 044A
ENCODING 1098
SWIDTH 600 0
DWIDTH 12 0
BBX 11 10 0 0
BITMAP
F800
F800
1800
1F80
1FC0
1860
1860
1860
1FC0
1F80
ENDCHAR
STARTCHAR 044B
ENCODING 1099
SWIDTH 800 0
DWIDTH 16 0
BBX 14 10 1 0
BITMAP
C1FC
C1FC
C030
FC30
FE30
C330
C330
C330
FEFC
FCFC
ENDCHAR
STARTCHAR 044C
ENCODING 1100
SWIDTH 500 0
DWIDTH 10 0
BBX 8 10 1 0
BITMAP
C0
C0
C0
FC
FE
C3
C3
C3
FE
FC
ENDCHAR
STARTCHAR 044D
ENCODING 1101
SWIDTH 500 0
DWIDTH 10 0
BBX 8 10 1 0
BITMAP
7C
FE
C7
03
3F
3F
03
07
FE
FC
ENDCHAR
STARTCHAR 044E
ENCODING 1102
SWIDTH 900 0
DWIDTH 18 0
BBX 16 10 1 0
BITMAP
C07C
C0FE
C1C7
C383
FF03
FF03
C307
C38E
C1FC
C0F8
ENDCHAR
STARTCHAR 044F
ENCODING 1103
SWIDTH 500 0
DWIDTH 10 0
BBX 9 10 0 0
BITMAP
0F80
3F80
7980
6180
7180
3F80
0F80
3D80
F180
C180
ENDCHAR
STARTCHAR 0451
ENCODING 1105
SWIDTH 550 0
DWIDTH 11 0
BBX 9 15 1 0
BITMAP
6300
6300
0000
0000
0000
1F00
3F80
6180
C700
FE00
F800
E080
E180
7F00
3E00
ENDCHAR
STARTCHAR 0452
ENCODING 1106
SWIDTH 550 0
DWIDTH 11 0
BBX 10 20 0 -4
BITMAP
3000
3000
FF00
FF00
3000
3000
3380
3FC0
3CC0
38C0
30C0
30C0
30C0
30C0
30C0
30C0
00C0
01C0
0F80
0F00
ENDCHAR
STARTCHAR 0453
ENCODING 1107
SWIDTH 450 0
DWIDTH 9 0
BBX 6 16 2 0
BITMAP
18
30
30
60
00
00
FC
FC
C0
C0
C0
C0
C0
C0
C0
C0
ENDCHAR
STARTCHAR 0454
ENCODING 1108
SWIDTH 500 0
DWIDTH 10 0
BBX 8 10 1 0
BITMAP
3E
7F
63
C0
FC
FC
C0
E0
7F
1F
ENDCHAR
STARTCHAR 0455
ENCODING 1109
SWIDTH 500 0
DWIDTH 10 0
BBX 8 10 1 0
BITMAP
07
7F
F3
C0
F8
1E
03
C3
FF
7C
ENDCHAR
STARTCHAR 0456
ENCODING 1110
SWIDTH 300 0
DWIDTH 6 0
BBX 2 14 2 0
BITMAP
C0
C0
00
00
C0
C0
C0
C0
C0
C0
C0
C0
C0
C0
ENDCHAR
STARTCHAR 0457
ENCODING 1111
SWIDTH 300 0
DWIDTH 6 0
BBX 7 14 -1 0
BITMAP
C6
C6
00
00
18
18
18
18
18
18
18
18
18
18
ENDCHAR
STARTCHAR 0458
ENCODING 1112
SWIDTH 400 0
DWIDTH 8 0
BBX 7 20 -1 -6
BITMAP
06
06
00
00
06
06
06
06
06
06
06
06
06
06
06
C6
C6
66
7C
38
ENDCHAR
STARTCHAR 0459
ENCODING 1113
SWIDTH 900 0
DWIDTH 18 0
BBX 17 10 0 0
BITMAP
1FE000
1FE000
186000
187E00
187F00
186180
186180
986180
F87F00
707E00
ENDCHAR
STARTCHAR 045A
ENCODING 1114
SWIDTH 750 0
DWIDTH 15 0
BBX 14 10 0 0
BITMAP
C300
C300
C300
FFF0
FFF8
C30C
C30C
C30C
C3F8
C3F0
ENDCHAR
STARTCHAR 045B
ENCODING 1115
SWIDTH 600 0
DWIDTH 12 0
BBX 10 16 0 0
BITMAP
3000
3000
3000
FF00
FF00
3000
3380
3FC0
3CC0
38C0
30C0
30C0
30C0
30C0
30C0
30C0
ENDCHAR
STARTCHAR 045C
ENCODING 1116
SWIDTH 500 0
DWIDTH 10 0
BBX 9 16 1 0
BITMAP
0600
0C00
0C00
1800
0000
0000
C180
C300
C600
FC00
FC00
CE00
C700
C300
C380
C180
ENDCHAR
STARTCHAR 045E
ENCODING 1118
SWIDTH 500 0
DWIDTH 10 0
BBX 10 21 0 -6
BITMAP
2040
30C0
1F00
0000
0000
C0C0
E0C0
6180
7180
3300
3300
1E00
1E00
0C00
0C00
0800
1800
1000
3000
3000
2000
ENDCHAR
STARTCHAR 045F
ENCODING 1119
SWIDTH 600 0
DWIDTH 12 0
BBX 9 13 1 -3
BITMAP
C180
C180
C180
C180
C180
C180
C180
C180
FF80
FF80
0C00
0C00
0C00
ENDCHAR
STARTCHAR 0490
ENCODING 1168
SWIDTH 600 0
DWIDTH 12 0
BBX 9 18 2 0
BITMAP
0180
0180
0180
FF80
FF80
C000
C000
C000
C000
C000
C000
C000
C000
C000
C000
C000
C000
C000
ENDCHAR
STARTCHAR 0491
ENCODING 1169
SWIDTH 450 0
DWIDTH 9 0
BBX 7 13 1 0
BITMAP
06
06
06
FE
FE
C0
C0
C0
C0
C0
C0
C0
C0
ENDCHAR
STARTCHAR 1E80
ENCODING 7808
SWIDTH 1000 0
DWIDTH 20 0
BBX 19 21 1 0
BITMAP
018000
01C000
00C000
006000
006000
000000
C06060
C06060
C0E0C0
60E0C0
61A0C0
61B180
21B180
333180
333300
363300
363600
1C3600
1C3600
183C00
181C00
ENDCHAR
STARTCHAR 1E81
ENCODING 7809
SWIDTH 700 0
DWIDTH 14 0
BBX 12 16 1 0
BITMAP
0C00
0E00
0600
0300
0300
0000
C630
CE30
CE60
CE60
DE60
DEC0
DAC0
72C0
7380
7380
ENDCHAR
STARTCHAR 1E82
ENCODING 7810
SWIDTH 1000 0
DWIDTH 20 0
BBX 19 20 1 0
BITMAP
006000
00C000
00C000
018000
000000
C06060
C06060
C0E0C0
60E0C0
61A0C0
61B180
21B180
333180
333300
363300
363600
1C3600
1C3600
183C00
181C00
ENDCHAR
STARTCHAR 1E83
ENCODING 7811
SWIDTH 700 0
DWIDTH 14 0
BBX 12 16 1 0
BITMAP
0300
0600
0600
0C00
0000
0000
C630
CE30
CE60
CE60
DE60
DEC0
DAC0
72C0
7380
7380
ENDCHAR
STARTCHAR 1E84
ENCODING 7812
SWIDTH 1000 0
DWIDTH 20 0
BBX 19 18 1 0
BITMAP
018C00
018C00
000000
C06060
C06060
C0E0C0
60E0C0
61A0C0
61B180
21B180
333180
333300
363300
363600
1C3600
1C3600
183C00
181C00
ENDCHAR
STARTCHAR 1E85
ENCODING 7813
SWIDTH 700 0
DWIDTH 14 0
BBX 12 14 1 0
BITMAP
18C0
18C0
0000
0000
C630
CE30
CE60
CE60
DE60
DEC0
DAC0
72C0
7380
7380
ENDCHAR
STARTCHAR 1EF2
ENCODING 7922
SWIDTH 650 0
DWIDTH 13 0
BBX 12 21 0 -1
BITMAP
0C00
0E00
0600
0300
0300
C030
E030
6060
3060
30C0
18C0
1980
0D80
0780
0700
0300
0600
0600
0C00
0C00
0800
ENDCHAR
STARTCHAR 1EF3
ENCODING 7923
SWIDTH 500 0
DWIDTH 10 0
BBX 10 22 0 -6
BITMAP
3000
3800
1800
0C00
0C00
0000
C0C0
E0C0
6180
7180
3300
3300
1E00
1E00
0C00
0C00
0800
1800
1000
3000
3000
2000
ENDCHAR
STARTCHAR 2013
ENCODING 8211
SWIDTH 450 0
DWIDTH 9 0
BBX 8 2 0 5
BITMAP
FF
FF
ENDCHAR
STARTCHAR 2014
ENCODING 8212
SWIDTH 900 0
DWIDTH 18 0
BBX 16 2 1 5
BITMAP
FFFF
FFFF
ENDCHAR
STARTCHAR 2015
ENCODING 8213
SWIDTH 900 0
DWIDTH 18 0
BBX 16 2 1 5
BITMAP
FFFF
FFFF
ENDCHAR
STARTCHAR 2017
ENCODING 8215
SWIDTH 650 0
DWIDTH 13 0
BBX 13 5 0 -5
BITMAP
FFF8
FFF8
0000
FFF8
FFF8
ENDCHAR
STARTCHAR 2018
ENCODING 8216
SWIDTH 200 0
DWIDTH 4 0
BBX 3 5 1 10
BITMAP
C0
C0
E0
60
60
ENDCHAR
STARTCHAR 2019
ENCODING 8217
SWIDTH 200 0
DWIDTH 4 0
BBX 3 5 0 10
BITMAP
60
60
E0
C0
C0
ENDCHAR
STARTCHAR 201A
ENCODING 8218
SWIDTH 300 0
DWIDTH 6 0
BBX 3 4 1 -2
BITMAP
60
60
C0
C0
ENDCHAR
STARTCHAR 201B
ENCODING 8219
SWIDTH 200 0
DWIDTH 4 0
BBX 3 5 0 10
BITMAP
60
60
E0
C0
C0
ENDCHAR
STARTCHAR 201C
ENCODING 8220
SWIDTH 400 0
DWIDTH 8 0
BBX 7 5 1 10
BITMAP
CC
CC
EE
66
66
ENDCHAR
STARTCHAR 201D
ENCODING 8221
SWIDTH 400 0
DWIDTH 8 0
BBX 7 5 1 10
BITMAP
66
66
CC
CC
CC
ENDCHAR
STARTCHAR 201E
ENCODING 8222
SWIDTH 400 0
DWIDTH 8 0
BBX 7 4 0 -2
BITMAP
66
66
CC
CC
ENDCHAR
STARTCHAR 2020
ENCODING 8224
SWIDTH 600 0
DWIDTH 12 0
BBX 11 19 1 -2
BITMAP
0C00
0C00
0C00
0C00
0C00
FFE0
FFE0
0C00
0C00
0C00
0C00
0C00
0C00
0C00
0C00
0C00
0C00
0C00
0C00
ENDCHAR
STARTCHAR 2021
ENCODING 8225
SWIDTH 600 0
DWIDTH 12 0
BBX 11 19 1 -2
BITMAP
0C00
0C00
0C00
0C00
FFE0
FFE0
0C00
0C00
0C00
0C00
7FC0
7FC0
0C00
0C00
0C00
0C00
0C00
0C00
0C00
ENDCHAR
STARTCHAR 2022
ENCODING 8226
SWIDTH 400 0
DWIDTH 8 0
BBX 4 4 2 5
BITMAP
60
F0
F0
60
ENDCHAR
STARTCHAR 2026
ENCODING 8230
SWIDTH 600 0
DWIDTH 12 0
BBX 10 2 2 -1
BITMAP
CCC0
CCC0
ENDCHAR
STARTCHAR 2030
ENCODING 8240
SWIDTH 1250 0
DWIDTH 25 0
BBX 22 16 1 0
BITMAP
00C000
78C000
FD8000
CD8000
CD8000
FF0000
7B0000
060000
060000
0C0000
0CF0F0
1DFDFC
198D8C
198D8C
31F9F8
30F0F0
ENDCHAR
STARTCHAR 2032
ENCODING 8242
SWIDTH 200 0
DWIDTH 4 0
BBX 3 5 0 10
BITMAP
60
60
E0
C0
C0
ENDCHAR
STARTCHAR 2033
ENCODING 8243
SWIDTH 350 0
DWIDTH 7 0
BBX 6 5 0 10
BITMAP
6C
6C
FC
D8
D8
ENDCHAR
STARTCHAR 2039
ENCODING 8249
SWIDTH 400 0
DWIDTH 8 0
BBX 6 8 1 2
BITMAP
0C
1C
38
70
E0
30
1C
0C
ENDCHAR
STARTCHAR 203A
ENCODING 8250
SWIDTH 400 0
DWIDTH 8 0
BBX 6 8 1 2
BITMAP
C0
E0
70
38
1C
30
E0
C0
ENDCHAR
STARTCHAR 203C
ENCODING 8252
SWIDTH 450 0
DWIDTH 9 0
BBX 6 17 1 -1
BITMAP
CC
CC
CC
CC
CC
CC
CC
CC
CC
CC
CC
CC
CC
CC
00
CC
CC
ENDCHAR
STARTCHAR 203E
ENCODING 8254
SWIDTH 600 0
DWIDTH 12 0
BBX 15 2 -2 14
BITMAP
FFFE
FFFE
ENDCHAR
STARTCHAR 2044
ENCODING 8260
SWIDTH 800 0
DWIDTH 16 0
BBX 15 16 0 0
BITMAP
0006
000C
0018
0030
0020
0060
00C0
0180
0300
0600
0C00
1800
3000
7000
E000
C000
ENDCHAR
STARTCHAR 207F
ENCODING 8319
SWIDTH 550 0
DWIDTH 11 0
BBX 7 8 2 7
BITMAP
DC
FE
E6
C6
C6
C6
C6
C6
ENDCHAR
STARTCHAR 20A3
ENCODING 8355
SWIDTH 1000 0
DWIDTH 20 0
BBX 17 15 2 0
BITMAP
FF0000
FFC000
C0C000
C00000
C00000
C06780
DFEF80
FFF980
E07180
C06000
C06000
C06000
C06000
C06000
C06000
ENDCHAR
STARTCHAR 20A4
ENCODING 8356
SWIDTH 800 0
DWIDTH 16 0
BBX 13 16 1 -1
BITMAP
07C0
1FE0
1830
3030
3000
FF00
FF00
3000
1800
7F80
7F80
1818
1818
3E18
3FF0
61E0
ENDCHAR
STARTCHAR 20A7
ENCODING 8359
SWIDTH 1200 0
DWIDTH 24 0
BBX 22 15 1 0
BITMAP
FC0000
FF0000
C33000
C1B000
C1B01C
C1FEFC
C7FFE4
FF3300
FC33C0
C031F8
C0301C
C0300C
C0360C
C037FC
C031F0
ENDCHAR
STARTCHAR 20AC
ENCODING 8364
SWIDTH 600 0
DWIDTH 12 0
BBX 12 15 0 0
BITMAP
01F0
03F0
0630
0C30
FFE0
FFE0
1800
3000
FF00
FF00
3000
3060
38E0
1FC0
0F80
ENDCHAR
STARTCHAR 2105
ENCODING 8453
SWIDTH 800 0
DWIDTH 16 0
BBX 14 15 1 0
BITMAP
38C0
78C0
C080
C180
C180
C300
7B00
7A00
0670
06F8
0D8C
0D8C
098C
19F8
18F0
ENDCHAR
STARTCHAR 2113
ENCODING 8467
SWIDTH 500 0
DWIDTH 10 0
BBX 8 15 0 0
BITMAP
0E
1F
33
33
33
36
3C
38
F0
F0
30
30
38
1F
0F
ENDCHAR
STARTCHAR 2116
ENCODING 8470
SWIDTH 1150 0
DWIDTH 23 0
BBX 20 15 2 0
BITMAP
C02000
E03000
E03000
F031C0
F833E0
D83670
CC3630
CC3630
C63630
C333E0
C3B1C0
C1B000
C0F000
C07FF0
C03FF0
ENDCHAR
STARTCHAR 2122
ENCODING 8482
SWIDTH 900 0
DWIDTH 18 0
BBX 16 7 1 9
BITMAP
FFA4
0864
086A
086A
0852
0891
0891
ENDCHAR
STARTCHAR 2126
ENCODING 8486
SWIDTH 950 0
DWIDTH 19 0
BBX 17 15 1 0
BITMAP
00FC00
03FE00
0F0700
1C0300
180300
300300
300300
300300
300700
300600
180600
180C00
0C1800
FC3F80
F83F80
ENDCHAR
STARTCHAR 212E
ENCODING 8494
SWIDTH 550 0
DWIDTH 11 0
BBX 9 10 1 0
BITMAP
3E00
6300
4100
C180
FF80
C000
C000
C000
6100
3E00
ENDCHAR
STARTCHAR 215B
ENCODING 8539
SWIDTH 650 0
DWIDTH 13 0
BBX 9 20 2 -3
BITMAP
1800
3800
0800
0800
0800
0800
0800
3E00
0000
0000
FF80
0000
1C00
2200
2200
1C00
3600
2200
2200
1C00
ENDCHAR
STARTCHAR 215C
ENCODING 8540
SWIDTH 650 0
DWIDTH 13 0
BBX 10 19 2 -3
BITMAP
1C00
0200
0200
0400
0E00
0200
0200
1C00
0000
FFC0
0000
1C00
2200
2200
1C00
1600
2200
2200
1C00
ENDCHAR
STARTCHAR 215D
ENCODING 8541
SWIDTH 650 0
DWIDTH 13 0
BBX 9 19 2 -3
BITMAP
3E00
2000
3C00
3200
0200
0200
2200
1C00
0000
FF80
0000
1C00
2200
2200
1C00
1600
2200
2200
1C00
ENDCHAR
STARTCHAR 215E
ENCODING 8542
SWIDTH 650 0
DWIDTH 13 0
BBX 9 19 2 -3
BITMAP
1F80
0100
0300
0600
0600
0400
0C00
0800
0000
FF80
0000
1C00
2200
2200
1C00
2200
2200
2200
1C00
ENDCHAR
STARTCHAR 2202
ENCODING 8706
SWIDTH 550 0
DWIDTH 11 0
BBX 8 15 2 0
BITMAP
60
70
18
1C
0C
06
1E
3B
63
C3
C3
C3
E6
7E
3C
ENDCHAR
STARTCHAR 2206
ENCODING 8710
SWIDTH 800 0
DWIDTH 16 0
BBX 15 16 1 0
BITMAP
0100
0380
0380
06C0
06C0
0E60
0C60
0C30
1830
1818
3818
300C
700C
6006
FFF6
FFFE
ENDCHAR
STARTCHAR 220F
ENCODING 8719
SWIDTH 900 0
DWIDTH 18 0
BBX 16 18 1 -3
BITMAP
FFFF
FFFF
300C
300C
300C
300C
300C
300C
300C
300C
300C
300C
300C
300C
300C
300C
300C
3004
ENDCHAR
STARTCHAR 2211
ENCODING 8721
SWIDTH 750 0
DWIDTH 15 0
BBX 14 18 1 -3
BITMAP
FFF8
FFF8
3000
1800
0C00
0400
0200
0300
0180
0300
0600
0C00
0800
1800
3000
6000
7FFC
7FFC
ENDCHAR
STARTCHAR 2212
ENCODING 8722
SWIDTH 500 0
DWIDTH 10 0
BBX 9 1 0 5
BITMAP
FF80
ENDCHAR
STARTCHAR 2215
ENCODING 8725
SWIDTH 800 0
DWIDTH 16 0
BBX 15 16 0 0
BITMAP
0006
000C
0018
0030
0020
0060
00C0
0180
0300
0600
0C00
1800
3000
7000
E000
C000
ENDCHAR
STARTCHAR 2219
ENCODING 8729
SWIDTH 250 0
DWIDTH 5 0
BBX 2 2 1 7
BITMAP
C0
C0
ENDCHAR
STARTCHAR 221A
ENCODING 8730
SWIDTH 550 0
DWIDTH 11 0
BBX 11 17 0 -1
BITMAP
03E0
03E0
0600
0600
0600
0600
0600
0C00
0C00
0C00
0C00
D800
D800
D800
7000
7000
3000
ENDCHAR
STARTCHAR 221E
ENCODING 8734
SWIDTH 700 0
DWIDTH 14 0
BBX 13 6 1 3
BITMAP
78F0
CF88
8708
8708
CD98
78F0
ENDCHAR
STARTCHAR 222B
ENCODING 8747
SWIDTH 700 0
DWIDTH 14 0
BBX 12 21 1 -4
BITMAP
01E0
03F0
0330
0600
0600
0600
0600
0600
0600
0600
0600
0600
0600
0600
0600
0600
C600
C400
CC00
7C00
3800
ENDCHAR
STARTCHAR 2248
ENCODING 8776
SWIDTH 600 0
DWIDTH 12 0
BBX 11 10 1 2
BITMAP
1C60
3E60
77E0
63C0
0000
3840
7CC0
6CC0
C780
C380
ENDCHAR
STARTCHAR 2260
ENCODING 8800
SWIDTH 500 0
DWIDTH 10 0
BBX 7 12 1 1
BITMAP
0C
0C
FE
FE
08
18
10
10
FE
FE
60
60
ENDCHAR
STARTCHAR 2264
ENCODING 8804
SWIDTH 350 0
DWIDTH 7 0
BBX 7 11 0 -1
BITMAP
0C
1C
38
60
E0
30
1C
0C
00
FE
FE
ENDCHAR
STARTCHAR 2265
ENCODING 8805
SWIDTH 350 0
DWIDTH 7 0
BBX 7 12 0 -1
BITMAP
60
70
38
1C
0E
1C
38
60
40
00
FE
FE
ENDCHAR
STARTCHAR 25A1
ENCODING 9633
SWIDTH 750 0
DWIDTH 15 0
BBX 8 8 4 0
BITMAP
FF
81
81
81
81
81
81
FF
ENDCHAR
STARTCHAR 25AA
ENCODING 9642
SWIDTH 650 0
DWIDTH 13 0
BBX 5 5 4 1
BITMAP
F8
F8
F8
F8
F8
ENDCHAR
STARTCHAR 25AB
ENCODING 9643
SWIDTH 650 0
DWIDTH 13 0
BBX 6 6 4 1
BITMAP
FC
84
84
84
84
FC
ENDCHAR
STARTCHAR 25CA
ENCODING 9674
SWIDTH 700 0
DWIDTH 14 0
BBX 13 17 1 -1
BITMAP
0600
0F00
0F00
1980
10C0
30E0
6070
6038
C018
C030
6030
3060
18C0
0C80
0D80
0700
0200
ENDCHAR
STARTCHAR 25CF
ENCODING 9679
SWIDTH 650 0
DWIDTH 13 0
BBX 5 5 4 1
BITMAP
70
F8
F8
F8
70
ENDCHAR
STARTCHAR 25E6
ENCODING 9702
SWIDTH 650 0
DWIDTH 13 0
BBX 6 6 4 1
BITMAP
78
CC
84
84
CC
78
ENDCHAR
STARTCHAR F001
ENCODING 61441
SWIDTH 650 0
DWIDTH 13 0
BBX 11 18 0 -2
BITMAP
0780
0FE0
0C60
1800
1800
1800
FFE0
FFE0
1860
1860
1860
1860
1860
1860
1860
1860
1800
1800
ENDCHAR
STARTCHAR F002
ENCODING 61442
SWIDTH 650 0
DWIDTH 13 0
BBX 11 18 0 -2
BITMAP
03E0
0FE0
1C60
1860
1860
1860
FFE0
FFE0
1860
1860
1860
1860
1860
1860
1860
1860
1800
1800
ENDCHAR
STARTCHAR F003
ENCODING 61443
SWIDTH 400 0
DWIDTH 8 0
BBX 3 5 3 12
BITMAP
E0
E0
C0
E0
60
ENDCHAR
STARTCHAR F004
ENCODING 61444
SWIDTH 400 0
DWIDTH 8 0
BBX 3 5 3 12
BITMAP
E0
E0
60
E0
C0
ENDCHAR
STARTCHAR F005
ENCODING 61445
SWIDTH 400 0
DWIDTH 8 0
BBX 3 4 3 13
BITMAP
60
C0
E0
E0
ENDCHAR
STARTCHAR FB01
ENCODING 64257
SWIDTH 650 0
DWIDTH 13 0
BBX 11 18 0 -2
BITMAP
0780
0FE0
0C60
1800
1800
1800
FFE0
FFE0
1860
1860
1860
1860
1860
1860
1860
1860
1800
1800
ENDCHAR
STARTCHAR FB02
ENCODING 64258
SWIDTH 650 0
DWIDTH 13 0
BBX 11 18 0 -2
BITMAP
03E0
0FE0
1C60
1860
1860
1860
FFE0
FFE0
1860
1860
1860
1860
1860
1860
1860
1860
1800
1800
ENDCHAR
ENDFONT
